<?xml version="1.0" encoding="utf-8"?>
<!-- Generator: Adobe Illustrator 23.0.1, SVG Export Plug-In . SVG Version: 6.00 Build 0)  -->
<svg version="1.1" xmlns="http://www.w3.org/2000/svg" xmlns:xlink="http://www.w3.org/1999/xlink" x="0px" y="0px"
	 viewBox="0 0 800 600" style="enable-background:new 0 0 800 600;" xml:space="preserve">
<style type="text/css">
	.st0{fill:none;stroke:#ffffff;stroke-width:12;stroke-linecap:round;stroke-linejoin:round;}
	.st1{font-family:'Roboto-Regular';}
	.st2{font-size:14px;}
</style>
<g id="Colombia">
	<path class="st0" d="M263.724,399.259l0.476-0.225l-0.202-0.539l-0.372-0.321l-0.399-0.255l-0.279-0.342l-0.034-0.459l0.064-0.571
		l0.005-0.571l-0.222-0.456l-0.192-0.054l-0.388,0.185l-0.59,0.265l-0.251-0.292l-0.306-0.279l-0.39-0.056l-0.292-0.265
		l-0.655-0.362l-0.269-0.129l-0.796-0.501l-0.443-0.472l-0.266-0.442l0.147-0.501l0.236-0.295l0.472-0.177l0.59-0.147l0.531-0.501
		l0.472-0.914l0.413-0.56l0.767-0.767l0.619-0.708l0.413-0.443l0.62-0.502l1.404-0.314l0.678,0.108l0.523-0.063l0.657,0.143
		l0.572,0.257l0.642,0.156l1.009,0.07l0.666,0.147l0.871,0.107l0.153,0.077l0.211,0.249l0.287,0.211l0.307,0.096l0.287-0.057
		l-0.019-0.422l0.039-0.23l0.115-0.479l0.403-0.441l0.212-0.767l-0.234-0.491l0.037-0.451l0.05-0.099l0.1-0.146l0.081-0.198
		l-0.007-0.266l-0.089-0.177l-0.119,0.12l-0.186,0.376l-0.392,0.222l-0.598-0.001l-0.188-0.393l-0.017-0.562l0.132-0.612
		l0.039-0.457l0.152-0.735l0.034-0.359l-0.098-0.262l-0.245-0.309l-0.31-0.26l-0.3-0.104l-0.332,0.184l-0.246,0.391l-0.309,0.955
		l-0.324,0.17l-0.221-0.239l-0.052-0.624l-0.1-0.823l-0.37-1.025l-0.264-1.428l-0.264-1.032l-0.079-1.297l0.345-0.741l0.371-0.821
		l0.212-0.768l0.81-0.333l0.253-0.853l0.889-1.603l0.654-1.305l0.349-0.904l0.454-0.482l-0.19,0.5l-0.029,0.513l0.081,0.517
		l0.138,0.506l0.424-1.361l0.262-1.458l0.336-0.613l0.559,0.14l0.754-0.947l0.754-0.891l0.726-1.058l0.642-0.25l0.53-0.501
		l0.641-0.612l0.781-0.473l0.362,0.028l0.279,0.697l0.334,0.808l0.473,0.78l0.612,0.863l0.685,0.018l-0.322-1.02l-0.167-0.863
		l0.028-0.919l0.251-0.445l0.446-0.417l0.334,0.53l0.222,0.919l-0.195,0.668l0.306,0.501l0.278,0.64l0.233,0.544l0.441,0.479
		l0.262,0.188l1.071,0.532l0.491,0.145l0.286-0.027l0.493-0.324l0.599-0.186l0.042-0.165l0.006-0.227l-0.021-0.189l-0.027-0.055
		l0.106-0.177l0.044-0.119l0.009-1.084l-0.111-0.445l-0.139-0.473l-0.306-0.501l-0.167-0.529l0.279-0.279l0.668,0.139l0.306-0.223
		l0.724-0.028l0.557,0.028l0.501-0.028l0.39-0.25l0.669-0.39l0.585,0.056l0.421,0.375l0.313,0.567l0.236,0.33l0.322,0.085
		l0.567-0.158l-0.271,0.471l-0.252,0.629l0.034,0.549l0.6,0.238l0.355,0.039l0.607,0.141l0.382,0.007l0.777-0.162l0.344-0.026
		l0.736-0.169l0.528-0.419l0.277-0.542l-0.01-0.532l-0.184-0.382l-0.339-0.518l-0.435-0.428l-0.462-0.131v-0.185h0.617v-0.227
		l-0.395-0.077l-0.188-0.203l-0.005-0.27l0.159-0.272l-0.313-0.081l-0.103-0.185l0.056-0.257l0.173-0.298l-0.266-0.055l-0.127-0.081
		l-0.033-0.169l0.015-0.313l0.529,0.217l0.418-0.178l0.379-0.306l0.411-0.163l0.193-0.023l0.269-0.076l0.171-0.122l-0.11-0.169
		l-0.25-0.043l-0.495,0.228h-0.264l-0.452-0.278l0.118-0.221l0.332-0.199l0.189-0.208l0.208,0.071l0.484,0.098l0.552,0.039
		l0.418-0.105l0.125,0.199l0.202,0.245l0.066,0.174h0.224l-0.294-0.645l-1.108-0.282l0.358-0.532l0.463-0.25l0.438-0.052
		l0.402-0.105l0.359-0.417l0.293,0.121l0.237,0.131l0.175,0.162l0.096,0.222l0.17-0.7l-0.651-0.219l-0.918,0.132l-0.635,0.357
		l-0.168-0.452l-0.023-0.658l0.169-0.62l0.415-0.326l0.411,0.049l0.276,0.245l0.248,0.299l0.317,0.23l0.339,0.104l0.098-0.058
		l0.032-0.184l0.147-0.277l0.274-0.275l0.131-0.097l0.031-0.118l-0.025-0.332l-0.103-0.162l-0.414-0.113l-0.121-0.136l0.007-0.153
		l0.168-0.105l0.145-0.396l0.157-0.051l0.082-0.065l-0.126-0.277l-0.197-0.115l-0.248,0.017l-0.229-0.038l-0.147-0.276l-0.044,0.217
		l-0.043,0.05v0.02l0.087,0.125l-0.324,0.195l-0.337,0.067l-0.264-0.108l-0.103-0.342l-0.755,0.678l-0.289,0.146l0.053-0.364
		l1.106-1.321l0.685-0.983l0.438-0.464l2.295-1.935l0.602-1.117l0.355-0.654l0.436-0.136l0.495,0.204l0.094-0.302l0.031-0.26
		l0.081-0.306l0.209-0.007l0.274,0.067l0.182-0.183l-0.173-0.309l-0.462-0.212l-0.463,0.154l-0.675,0.076l-0.096-0.27l0.367-0.462
		l0.733-0.635l0.501-0.308l0.713-0.269l-0.385-0.348l0.033-0.617l0.237-0.332l0.339-0.346l0.359-0.213l0.296,0.068l0.498-0.128
		l0.427-0.059l0.132-0.086l0.586-0.531l0.676,1.262l0.444,0.493l0.747,0.285l-0.137-0.336l-1.001-1.199l-0.267-0.444l-0.043-0.496
		l0.138-0.473l0.284-0.363l0.108,0.256l0.203,0.28l0.198,0.147l0.088-0.14l-0.061-0.224l-0.269-0.385l-0.061-0.12l0.152-0.609
		l0.284-0.515l0.163-0.522l-0.207-0.637l0.309-0.018l0.306,0.018l-0.093,0.147l-0.058,0.155l-0.028,0.188l-0.007,0.239l0.083,0.218
		l0.191,0.005l0.286-0.191l0.525,0.042l0.139,0.077l0.272,0.261l0.147,0.093l-0.037-0.288l-0.119-0.227l-0.193-0.167l-0.268-0.121
		l0.129-0.066l0.14-0.099l0.125-0.059l-0.566-0.199l-0.255-0.007l0.126-0.282l0.114-0.076l0.152,0.053l0.241,0.119l0.092-0.446
		l-0.426-0.159l-0.617,0.037l-0.487,0.14l0.12-0.471l0.338-0.071l0.468,0.096l0.513,0.034l-0.158-0.081l-0.312-0.221l-0.163-0.093
		l0.171-0.066l0.102-0.068l0.121-0.058l0.239-0.032l-0.092-0.123l-0.114-0.307l0.602-0.133l0.632-0.056v0.189l-0.146,0.275
		l0.294-0.005l0.879-0.27l-0.428-0.108l-0.099-0.205l0.136-0.276l0.534-0.635l0.189-0.37l0.284-0.876l0.345,0.245l0.246,0.066
		l0.231-0.112l0.318-0.294l0.331-0.124l0.464-0.118l0.198-0.13l-0.471-0.151l-0.399,0.059l-0.401,0.147l-0.309-0.029l-0.124-0.467
		l0.212-0.069l0.471-0.09l0.496-0.195l0.279-0.386l-0.518,0.065l-1.256,0.346l-0.4-0.194l-0.127-0.466l0.065-0.542l0.162-0.444
		l0.844,0.611l0.453,0.146l0.666,0.048l0.137-0.061l-0.078-0.134l-0.214-0.136l-0.273-0.061l-0.326,0.002l-0.246-0.027l-0.191-0.118
		l-0.154-0.27l0.496,0.039l0.421-0.081l0.324-0.216l0.217-0.361l-0.468-0.294l-0.285-0.361l0.033-0.399l0.495-0.405l0.235,0.166
		l0.14,0.158l0.054,0.206l-0.017,0.313l0.441-0.432l-0.189-0.621l-0.078-0.559l1.381-0.457l0.37-0.501l0.31-0.556l0.435-0.394
		v-0.188l-1.849,0.394v-0.206l0.211-0.07l0.201-0.118l-0.762,0.009l-0.344-0.061l-0.312-0.172l0.103,1.308l-1.748,1l-2.167,0.367
		l-1.157-0.596l0.062-0.279l0.431-0.239l0.105-0.231l-0.107-0.115l-0.523-0.258l-0.366-0.243l-0.131-0.004l-0.078-0.075
		l-0.029-0.319l0.033-0.258l0.075-0.219l0.118-0.253l0.152-0.783l0.154-0.266l0.31-0.184l0.432-0.07l0.286,0.098l0.027,0.233
		l-0.353,0.336l1.436-0.233l0.432-0.16v-0.205l-1.027,0.205l0.136-0.382l0.209-0.34l0.809-0.947l0.487-1.047l-0.319,0.014
		l-0.148-0.037l-0.066-0.123l-0.081-0.246l-0.46,0.101l-0.354-0.253l-0.359-0.388l-0.471-0.302l0.129,0.292l0.044,0.329
		l-0.044,0.324l-0.129,0.288l-0.261-0.144l-0.261-0.044l-0.264,0.052l-0.258,0.136v0.225l0.147,0.133l0.01,0.015l-0.067,0.049
		l-0.089,0.234l-0.135-0.126l-0.092-0.036l-0.126-0.009l-0.247-0.054l0.093,0.567l-0.093,0.836l-0.223,0.758l-0.307,0.33
		l-0.095,0.182l-0.107,0.828l-0.088,0.225l-0.48,0.044l-0.377-0.253l-0.154-0.41l0.189-0.43l-1.55-1.216l-0.173-0.243l-0.132-0.504
		l0.143-0.442l0.666-0.048l-0.348-0.441l-0.125-0.215l-0.215-0.816l-0.118-0.921l-0.004-0.915l0.07-0.416l0.186-0.342l0.348-0.296
		l0.419-0.095l0.404,0.048l0.307-0.056l0.121-0.403l0.118-0.211l0.286-0.217l0.362-0.107l0.346,0.123l0.503,0.597l0.202,0.059
		l0.425-0.13l0.541-0.319l0.482-0.452l0.862-1.104l-2.545-0.031l-0.47-0.072l-0.415-0.514l-1.109-1.854l0.848-1.206l0.18-0.462
		l0.239-1.299l0.3-0.464l0.673-0.316v-0.205l-0.615,0.205l0.082-0.853l0.327-1.417l0.02-4.137l0.098,0.28l0.12,0.217l0.162,0.181
		l0.22,0.166l0.137-0.302l0.085-0.494l-0.102-0.461l-0.717-0.372l-0.099-0.398l-0.029-0.48l-0.079-0.415l0.674,0.099l0.528,0.369
		l0.387,0.495l0.261,0.499h0.187l-0.353-0.966l-1.276-1.543l-0.203-1.017l-0.141,0.063l-0.354,0.1l-0.139,0.064l-0.26-1.232
		l-0.358-3.874l-0.186-0.496l-0.186-4.538l0.149-1.03l0.268-0.979l0.386-0.88l-0.433-0.263l-0.029-0.657l0.071-0.668l-0.132-0.306
		l-0.284-0.248l-0.157-0.59l-0.082-1.205l-0.444,0.143l-0.268-0.132l-0.117-0.347l0.008-0.509h0.204l0.136,0.139l0.107,0.075
		l0.14-0.033l0.235-0.181l-0.31-0.198l-0.122-0.276l-0.218-0.936l0.029-0.104l-0.02-0.124l-0.181-0.22l-0.139-0.052l-0.493-0.082
		l-0.19-0.073l-0.339-0.325l-0.213-0.319l-0.246-0.255l-0.433-0.133h-0.431l-0.315,0.091l-0.198,0.202l-0.082,0.327l-0.362-0.321
		l-0.356,0.018l-0.309,0.116l-0.224-0.022l-0.209-0.339l0.07-0.267l0.272-0.173l0.389-0.063l0.261-0.316l0.706-1.483l0.359-0.47
		l0.271-0.085l0.671-0.043l0.293-0.079l0.359-0.258l0.264-0.266l0.289-0.203l0.441-0.081l0.531,0.156l0.452,0.294l0.498,0.168
		l0.676-0.224l0.192-0.181l0.07-0.185l0.044-0.213l0.122-0.246l0.029-0.135l-0.054-0.347l0.025-0.137l0.135-0.038l0.198,0.038
		l0.186,0.015l0.081-0.109l0.141-0.326l0.332-0.267l0.381-0.235l0.285-0.223l0.199-0.303l0.153-0.345l0.105-0.359l0.065-0.347
		l-0.081-1.26l-0.455-1.063l-1.228-1.989l-0.105-0.099l-0.206-0.149l-0.022-0.665l-1.19-3.261H307.9v0.825h-0.187l-0.485-1.322
		l-0.771-1.191l-1.844-2.254l-0.328-0.532l-0.113-0.446l0.029-1.202l0.206-1.076l0.026-0.53l-0.231-0.387l0.206-0.187l1.129,0.94
		l0.72,0.92l0.304-0.217l0.305-0.525l0.419-1.118l0.102-0.567l0.027-0.533l-0.037-0.452l-0.092-0.328l-0.551-0.758l0.085-0.248
		l0.69-0.254l0.081,0.19l0.095,0.086l0.107,0.059l0.11,0.099l0.125-0.463l-0.109-0.424l-0.267-0.342l-0.366-0.218v-0.207
		l0.457-0.773l0.149-0.485l0.011-0.621l0.389-0.453l0.136-0.673l-0.071-0.676l-0.23-0.473l-1.028-0.827l-0.209-0.232l-0.141-0.212
		l-0.176-0.195l-0.313-0.187l0.013-0.338l0.154-0.631l0.038-0.387l-0.089-0.386l-0.224-0.149l-0.301-0.086l-1.021-0.579l-0.708,0.17
		l-0.588,0.452l-0.355,0.466l0.125,0.207l0.081,0.207l-0.242,0.046l-0.168,0.064l-0.227,0.116h-0.186l-0.006-0.765l0.051-0.361
		l0.141-0.34l-1.25-2.695l-0.599-0.821l-0.859-0.843l-0.433-0.287l-0.791-0.192l-0.127-0.154l-0.13-0.086l-0.348,0.115l-0.103,0.174
		l0.01,0.252l-0.05,0.239l-0.268,0.145l-0.152-2.096l0.274-0.876l0.829-0.358l0.359-0.533l-0.37-1.18l-0.94-1.787h-0.206
		l0.191,0.359l0.092,0.12l0.147,0.125v0.226h-0.224l-0.51-0.707l-2.217-2.376l-0.323-0.184l-0.545-0.064l-0.295-0.174l-0.189-0.378
		l-0.233-0.364l-0.431-0.139l0.206-0.189l-0.384-0.115l-0.348-0.281l-0.501-0.658l-0.234-0.069l1.228-3.952l1.048-3.373l0.718,0.16
		l0.664-0.105l0.575-0.345l0.448-0.561l0.27-0.781l-0.09-0.651l-0.679-1.329l-0.271-0.938l-0.141-1.291l0.19-1.115l0.722-0.399
		l0.311,0.168l1.504,1.287l0.292,0.334l-0.012,0.08l-0.124,0.27l-0.001,0.115l0.089,0.082l0.255,0.061l0.079,0.058l0.833,1.134
		l0.228,0.402l0.365,1.517l0.32,0.347l0.683-0.071l0.754-0.61l1.371-1.385l4.22-2.631l0.883-0.803l-0.188-0.562l-0.617-0.588
		l-0.403-0.89l0.098-0.37l0.886-1.13l0.77-1.737l0.637-0.641l0.924-0.487l1.011-0.337l0.905-0.19l1.115,0.012l0.173-0.127
		l-0.235-0.476l-0.294-0.311l-0.322-0.234l-0.291-0.278l-0.198-0.443l-0.056-0.733l-0.645-2.371l-0.874-1.68l-0.281-0.416
		l-0.775-1.149l-0.653-1.379l-0.224-0.315l-0.386-0.165l-0.401-0.023l-0.383-0.142l-0.336-0.524l-0.26-1.083l-0.249-2.086
		l-0.437-1.062l-0.498-0.85l-0.312-0.263l-0.508-0.17l-0.905,0.085l-0.272-0.176l0.001-0.696l0.25-0.902l0.33-0.353l0.85-0.908
		l0.362-0.76l-0.034-0.542l-0.145-0.31l0.031-0.232l0.491-0.311l0.485-0.108l0.487-0.049l0.314-0.223l0.042-0.42l0.011-0.14
		l0.051-0.087l0.075-0.078l0.068-0.111l0.452,0.276l0.31,1.122l0.359,0.577l0.371,0.369l0.301,0.376l0.25,0.448l0.217,0.572
		l0.253,1.177l0.255,0.639l1.959,1.337l1.518,0.613l0.443,0.323l0.326,0.386l2.431,4.017l0.639,0.496l0.416,0.072l0.839,0.011
		l0.133,0.033l0.274,0.07l0.186-0.392l0.244,0.006l0.177,0.304l-0.009,0.497h-0.187l-0.1-0.096l-0.124-0.093l-0.001,0.762
		l0.211,0.537l0.37,0.2l0.468-0.252v0.621l0.409-0.433l0.124,0.312l-0.286,0.492l-0.043,0.459l-0.135-0.059l-0.344-0.089
		l-0.136-0.059l0.193,1.083l0.728,0.454l0.68-0.101l0.061-0.586h1.849l-0.184,0.263l-0.158,0.3l-0.094,0.33l0.006,0.352h0.224
		l0.105-0.085l0.306-0.142v0.227l-1.047,0.396v0.208l0.27,0.046l0.179,0.08l0.247,0.275l-0.036,0.052l0.004,0.087l-0.029,0.1
		l-0.13-0.145l-0.175-0.089l-0.228-0.026l-0.29,0.036l0.246,0.265l0.297,0.19l0.283,0.225l0.202,0.375l-0.753-0.356l-0.815-0.223
		l-0.702,0.068l-0.421,0.511l-0.01,0.13l0.038,0.033h0.073l0.088,0.026l-0.551,1.716l0.802,1.066l1.609,0.509l1.873,0.047
		l0.353-0.062l0.36-0.127l0.313-0.187l0.207-0.247l0.097-0.267l-0.01-0.18l-0.054-0.188l-0.033-0.288l0.065-0.249l0.282-0.304
		l0.065-0.287l0.182-1.872l-0.042-0.849l-0.365-0.721l-0.076,0.239l-0.031,0.157l0.022,0.166l0.085,0.27h-0.187l-0.154-0.485
		l-0.111-0.701l-0.006-0.705l0.345-1.023l-0.116-0.65l-0.387-1.002l-0.167-0.991l0.002-4.243l-0.142-0.568l-0.394-0.238
		l-0.426-0.172l-0.191-0.426l-0.115-0.542l-0.191-0.522l-0.602-0.647l-0.944-0.642l-1.098-0.52l-0.867-0.097v0.227l-0.357-0.338
		l0.492-0.768l0.736-0.87l0.381-0.64l2.977-0.935l0.726-0.058l2.931-0.835l0.391-0.214l0.164-0.253l0.007-0.328l0.048-0.354
		l0.126-0.3l0.249-0.171v-0.188h-0.206v-0.228l0.574-0.097l2.04-0.758l0.409-0.28l1.326-1.347l1.559-1.085l0.686-0.61v-0.19
		l-0.22-0.362l0.261-0.243l1.828-0.454l0.71-0.416l0.558-0.068l0.253-0.195l0.155-0.296l0.274-0.376l1.113-0.808l0.241-0.337
		l-0.263-1.06l0.302-0.872l0.587-0.694l1.012-0.9l0.277-0.36l0.184-0.451l0.35-2.534l0.203-0.43l0.169-0.035l0.845-0.32l0.133-0.079
		l0.393-0.14l0.132-0.321l-0.011-0.561l0.062-0.531l0.114-0.288l0.329-0.354l0.286-0.205l0.258-0.119l1.218-0.39l0.969-0.294
		l0.853-0.496l0.711-0.603l0.072-0.746l0.214-0.426l0.676,0.072l0.342,0.311l0.979-0.056l1.039-0.198l0.728-0.295l0.23,0.081
		l0.233,0.153l0.157,0.249l-0.004,0.371l-0.415-0.184l-0.443-0.055l-0.424,0.107l-0.362,0.319l0.24,0.163l0.181,0.057l0.184-0.052
		l0.238-0.168l0.174,0.18l0.115,0.084l0.071,0.108l0.031,0.253l0.926-0.637l0.574-0.287l0.686-0.119l0.676,0.112l0.557,0.158
		l0.027,0.007l0.745,0.203l0.42-0.304l1.144-1.004l0.724-1.4l0.584-1.936l0.024-1.797l-0.326-0.84l-0.373-0.444l-0.212-0.186
		l-0.341-0.611l-0.473,0.004l-0.41-0.313l-0.314-0.178l-0.607,0.023l-0.397,0.163l-0.35,0.257l-0.07-0.304l1.681-1.704l0.28-0.818
		l0.514-1.682l-0.023-0.702l0.187-0.653l0.383-0.843l0.331-1.027l0.125-0.617l-0.013-0.631l0.414-1.742l0.07-0.981l-0.443-1.052
		l-0.023-0.608l0.164-0.234l0.116-0.099l0.233-0.051l0.206-0.112l0.116-0.168l0.316-0.684l0.214-0.316l0.094-0.179l0.102-0.341
		l0.039-0.346l-0.005-0.306l0.026-0.294l0.146-0.307l-0.968,0.538l-1.238,0.824l-1.197,1.276l-1.236,0.699l-0.563-0.089l0.441-1.025
		l0.866-0.493l0.413-0.287l0.263-0.311l0.206-0.298l0.165-0.378l0.272-0.358l0.081-0.343l-0.124-0.378l0.08-0.256l0.69,0.027
		l-0.162-0.256l-0.055-0.264l0.055-0.268l0.162-0.255l0.251,0.622l0.615-0.144l1.087-0.687l0.348-0.289l-0.022-0.687l-0.162-0.824
		l-0.061-0.707h-0.206l-0.256,0.159l-0.154-0.205l-0.206-0.808h-0.206l-0.089,0.293l-0.098,0.188l-0.157,0.11l-0.273,0.055
		l0.114-0.261l0.159-0.563l0.118-0.238l0.186-0.18l0.367-0.162l0.196-0.172l0.857-0.974l0.282-0.186l-0.157,0.517l-0.322,0.63
		l-0.107,0.53l0.473,0.224l0.398-0.276l0.185-0.65l0.025-0.767l-0.085-0.625l-0.125-0.132l-0.213-0.052l-0.297-0.025l0.018-0.181
		l0.165-0.39l0.042-0.075l-0.049-0.35l-0.002-0.332l-0.11-0.247l-0.372-0.097l-0.121-0.131l0.148-0.288l0.294-0.286l0.307-0.13
		l0.349-0.047l0.377-0.134l0.35-0.205l0.268-0.26l0.004-0.158l-0.231-0.308l0.021-0.141l0.096-0.06l0.23-0.089l0.087-0.061
		l0.257-0.127l0.261,0.021l0.202-0.06l0.082-0.366l0.113-0.014l0.231-0.273l0.191-0.319l-0.004-0.156l0.187-0.054l0.738-0.344
		l1.978-0.503l0.299-0.239l0.297-0.493l0.236-0.284l0.176-0.049l0.149,0.09l0.173,0.049l0.143,0.082l0.059,0.187l-0.064,0.117
		l-0.108,0.092l-0.022,0.12l0.194,0.204v0.131v0.078h0.206l0.173-0.244l0.648-0.611l-0.125-0.249l-0.069-0.222l-0.032-0.244
		l0.003-0.313l-0.468,0.407l-0.13,0.221l-0.617-0.348l-0.167-0.572l0.245-0.537l1.075-0.368l0.481-0.591l0.327-0.133l0.343-0.028
		l0.337-0.082l0.327-0.131l1.907-1.275l1.146-0.279l0.612-0.357l0.409-0.475l-0.038-0.49l0.132-0.307l0.153-0.7l0.125-0.269
		l0.284-0.187l0.414-0.183l0.554-0.032l0.577-0.229l0.385-0.446l0.731-0.586l0.065-0.524l0.845,0.002l1.023-0.099l0.487-0.408
		l-0.05-0.563l-0.037-0.537l-0.064-0.166l0.18-0.191l0.753,0.36l0.68,0.232l1.612,0.543l2.941,1.213l2.2,0.75l1.485,0.389
		l1.555,0.191l2.04,0.209l1.992-0.126l1.187-0.139l-0.439,0.324l-1.486,0.284l-2.899-0.081l-0.351-0.054l-0.329-0.089l-0.325-0.016
		l-0.339,0.158l-0.088,0.262l0.038,0.355l-0.016,0.314l-0.252,0.132l-0.121,0.396l0.334,0.885l0.74,1.439l-0.463-0.249l-0.438-0.475
		l-0.4-0.275l-0.342,0.354l-0.211-0.292h-0.717l-0.426-0.204l-0.236,0.105l-0.234,0.516l-0.178,0.621l-0.07,0.414l-0.034,0.931
		l0.053,0.449l0.185,0.217l0.416-0.151l0.178-0.481l0.136-0.538l0.299-0.331l-0.001,0.32l0.103,0.217l0.207,0.118l0.307,0.01
		l-0.051,0.302l0.051,1.144l0.459,0.207l0.488-0.022l0.381-0.267l0.127-0.527l-0.34,0.188l-0.267-0.075l-0.171-0.292l-0.06-0.466
		l0.121-0.401l0.235-0.277l0.159-0.257l-0.104-0.339l0.601,0.107l0.377,0.413l0.197,0.604l0.147,1.476l0.273,0.356l0.455,0.067
		l1.185-0.067l0.211-0.045l0.286-0.156l0.572-0.557l0.132-0.09l0.065-0.279l0.875-1.603l0.026-0.219l-0.026-0.845l0.339-0.668
		l0.054-0.254l0.098-0.158l0.421-0.5l0.098-0.18l0.224-1.168l0.285-0.682l1.874-2.739l0.097-0.242l-0.088-0.363l-0.42-0.518
		l-0.125-0.289l0.007-0.332l0.173-0.523l0.044-0.298l-0.056-0.304l-0.269-0.554l-0.086-0.292l0.055-0.122l0.29-0.263l0.066-0.148
		l-0.034-0.18l-0.078-0.085l-0.076-0.052l-0.035-0.081l0.07-0.322l0.165-0.298l0.398-0.559l0.159-0.176l0.137-0.086l0.099-0.135
		l0.037-0.327l0.393-0.744l0.47-0.035l0.387,0.091l0.215-0.141l-0.047-0.734h0.225l0.017,0.197l0.05,0.131l0.138,0.283l0.318-0.433
		l0.072-0.178l0.102,0.065l0.037,0.001l0.023,0.015l0.062,0.111h0.187v-0.629l0.3,0.245l0.228,0.476l0.332,0.116l0.293-0.146
		l0.137-0.318l0.125-0.184l0.247,0.249h0.225l0.054-0.22l0.117-0.117l0.181-0.054l0.244-0.046l0.76,0.08l0.583,0.23l0.504,0.365
		l0.525,0.479l0.224,0.09l1.379,0.297l0.974,0.573l1.184,0.376l3.637,0.261l3.393-0.27l0.807-0.001l4.907-0.005l3.313-0.514
		l0.295-0.17l0.192-0.261l0.916-0.701l0.774-0.429l0.153-0.125l0.226-0.275l0.354-0.727l0.151-0.111l0.35-0.105l0.263-0.254
		l0.422-0.595l0.331-0.285l1.004-0.457l1.716-1.644l3.636-1.929l5.245-4.31l0.552-0.334l1.102-0.381l1.829-0.398l0.469-0.219
		l0.913-0.661l0.617,0.181l0.638-0.324l0.66-0.463l0.683-0.234l1.792-0.064l0.559-0.146l0.478-0.278l0.77-0.645l0.975-0.241
		l1.308-0.953l1.598-0.646l0.376-0.483l0.553-0.555l0.125-0.32l0.051-0.27l0.378-1.104l1.076-1.692l0.304-1.032l0.673-0.896
		l0.206-0.371l0.047-0.601l-0.124-1.731l-0.126-0.631l-0.171-0.235l-0.283-0.248l-0.263-0.163l-0.105,0.018l0.067-0.401l0.257-0.264
		l0.702-0.406l0.937,0.34l3.089-0.55l1.06,0.239l-0.117,0.571l-1.251,1.31l0.451,0.239l0.46,0.778l0.529,0.244l0.893-0.413
		l0.153-0.101l0.078-0.401l0.201-0.348l0.266-0.268l0.276-0.15l0.389-0.02l0.408,0.048l0.323-0.045l0.132-0.296l-0.121-0.316
		l-0.217-0.278l-0.104-0.274l0.218-0.308l-0.305-0.241l-0.162-0.229l-0.185-0.199l-0.377-0.152l-0.393-0.038l-0.371,0.063
		l-0.304,0.153l-0.184,0.243h-0.186l-0.225-0.421l1.376-0.952l1.109-0.96l0.074-0.147l0.127-0.402l0.115-0.083l0.541,0.03
		l0.152-0.03l0.46-0.336l0.246-0.051l0.356,0.177l-0.534,0.271l-0.399,0.358l-0.092,0.42l0.391,0.444l0.219,0.119l0.155,0.016
		l0.447-0.135l0.031-0.084l-0.034-0.149l-0.007-0.143l0.114-0.064l0.422,0.025l0.11-0.025L476.305,68l0.367-0.265l0.212-0.352
		l0.098-0.558l-0.078-0.045l-0.159-0.02l-0.094-0.091l0.109-0.265l0.201-0.195l0.271-0.138l0.294-0.079l0.28-0.029l-0.192,0.547
		l0.182,0.276l0.288,0.241l0.132,0.429h0.187l0.078-0.113l0.117-0.214l0.049-0.209l-0.132-0.093l-0.208-0.074l0.154-0.162
		l0.261-0.147l0.11-0.039l0.353-0.195l0.415-0.133l0.393-0.182l0.295-0.352l-0.375,0.044l-0.316,0.147l-0.255,0.158l-0.194,0.073
		l-0.311-0.1l0.054-0.241l0.26-0.276l0.298-0.204l-0.339-0.001l-0.301,0.063l-0.241,0.133l-0.165,0.206l0.051-0.494l0.049-0.177
		l0.124-0.169l-0.395,0.258l-0.794,0.702l-0.266,0.301l-0.189-0.191l0.309-0.559l0.446-0.476l0.556-0.332l0.651-0.124l0.585,0.093
		l0.905,0.426l0.66,0.132h2.183l0.611,0.122l0.622,0.291l0.934,0.619l0.41,0.405l0.207,0.135l0.391,0.112l1.078-0.023l0.276,0.128
		l0.597,0.452l0.611,0.224l1.377,0.268l1.003,0.511l0.588,0.436l0.322,0.519l0.134,0.168l0.136,0.249l0.108,0.586l1.824,3.127
		l0.202,0.834l1.138,1.699l0.192,0.599l-0.186,0.694l-0.373,0.652l-0.361,0.473l-0.807,0.605l-2.079,1.146l-0.606,0.675
		l-0.437,0.239l-0.51,0.193l-0.397,0.083l-0.143,0.263l-0.586,1.646l-0.132,0.248l-0.001,0.003l-0.906-0.025l-0.536,0.299
		l-1.029,0.885l-1.197,0.518l-0.813,0.211l-1.763,0.462l-1.762,0.462l-1.765,0.459l-1.763,0.462l-1.762,0.461l-1.763,0.46
		l-1.763,0.462l-1.763,0.46l-0.777,0.203l-0.588,0.395l-0.521,0.751l-0.303,0.568l-0.897,1.683l-0.897,1.682l-0.897,1.682
		l-0.897,1.681l-0.897,1.681l-0.897,1.682l-0.899,1.682l-0.897,1.68l-0.316,0.395l-0.529,0.136l-1.119-0.296l-0.586-0.062
		l-0.605,0.126l-1.671,0.625l-1.294,0.056l-0.647,0.101l-0.536,0.36l-0.135,0.277l-0.026,0.585l-0.084,0.298l-0.227,0.322
		l-0.569,0.616l-0.244,0.346l-1.035,2.566l-0.543,0.747l-0.56,0.543l-1.312,0.921l-0.79,0.906l-0.697,1.359l-1.452,4.177
		l-0.813,1.333l-1.853,2.165l-0.553,1.607l-0.421,0.564l-0.499,0.512l-0.468,0.626l-0.221,0.598l-0.01,0.145l-0.03,0.438
		l0.022,0.598l-0.605,6.699l-1.567,5.372l-0.005,1.191l-0.25,1.196l-0.023,0.628l0.196,0.786l0.266,0.563l0.12,0.565l-0.238,0.791
		l-0.944,1.941l-1.654,2.58l-0.76,2.067l-0.316,0.561l-0.48,0.511l-1.206,0.76l-0.443,0.406l-0.571,1.353l-2.407,3.564l-1.034,2.609
		l-0.379,0.619l-0.535,0.51l-1.112,0.771l-0.353,0.591l-0.009,0.662l0.401,0.247l0.426-0.011l3.304-0.082l1.252-0.175l1.085-0.533
		l1.032-0.978l0.527-0.349l0.77-0.217l0.684-0.387l1.305-1.23l0.69-0.024l0.185,0.228l0.375,1.104l-0.009,0.114l-0.121,0.269
		l-0.005,0.114l0.103,0.153l0.281,0.286l0.084,0.135l0.121,0.743l-0.079,1.28l0.165,0.661l0.538,0.745l0.569,0.146l0.608-0.237
		l1.029-0.683l0.24-0.124l0.37-0.11l0.345,0.009l0.263,0.09l0.222,0.005l0.224-0.246l0.572,0.547l0.501,0.298l0.163,0.35
		l-0.434,0.701l0.51,0.594l0.151,0.575l0.345,1.33l0.347,1.329l0.347,1.331l0.345,1.33l0.348,1.329l0.345,1.33l0.347,1.329
		l0.345,1.33l0.319,1.223l0.602,1.023l0.552,0.6l0.594,0.643l0.589,0.641l0.592,0.642l0.588,0.643l0.592,0.642l0.591,0.641
		l0.592,0.641l0.589,0.642l0.712,0.772l0.353,0.299l0.305,0.119l0.285,0.075l0.281,0.153l0.016,0.009l0.356,0.362l0.292,0.46
		l0.204,0.51l0.084,0.512l-0.056,0.495l-0.269,0.995l-0.036,0.493l0.163,0.677l1.001,1.891l0.647,2.074l0.057,1.168l-0.488,0.696
		l-0.516-0.003l-0.634-0.106l-0.564,0.073l-0.302,0.547l-0.143,0.593l-0.249,0.477l-0.354,0.407l-0.446,0.37l-0.322,0.16
		l-0.342,0.126l-0.271,0.193l-0.103,0.355l0.137,0.267l0.631,0.733l0.211,0.336l0.126,0.527l0.081,1.317l-0.072,0.534l-0.602,1.855
		l-0.277,3.182l0.089,0.62l0.409,1.186l0.103,0.58l-0.12,0.668l-0.257,0.61l-0.184,0.626l0.1,0.715l0.824,1.342l1.104,0.801
		l0.566,0.192l0.753,0.255l1.474,0.274l2.471-0.038l1.007,0.285l1.039,1.351l0.162,0.099l0.068,0.158l-0.284,1.234l-0.022,0.26
		l0.082,0.901l0.221,0.882l0.325,0.856l1.657,3.209l0.519,0.611l0.344,0.224l0.827,0.373l0.403,0.244l0.704,0.598l0.34,0.187
		l0.005,0.003l0.896,0.21l2.498,0.585l0.987,0.083l0.468-0.078l0.323-0.197l0.294-0.249l0.376-0.243l0.333-0.016l0.325,0.066
		l0.188-0.11l-0.076-0.539l0.863-0.013l0.712-0.124l0.712-0.047l0.855,0.219l-0.118-0.5l0.196-0.221l0.382-0.056l1.02,0.038
		l0.247,0.176l0.171,0.244l0.354,0.247l0.208,0.025l0.216-0.069l0.407-0.235l0.26-0.058l0.146,0.119l0.076,0.166l0.051,0.081
		l0.022,0.025l0.596,0.038l-0.008-0.038l0.031-0.047l0.546-0.144l0.67,0.172l0.6,0.5l0.359-0.099l0.791-0.365l0.468-0.099
		l0.473,0.045l0.969,0.266l0.501,0.038l1.252-0.24l0.459,0.048l0.271,0.21l0.062,0.353l0.023,0.382l0.156,0.31l0.406,0.172
		l1.468,0.036l0.353,0.171l0.232,0.199l0.294,0.083l0.533-0.168l0.382-0.273l0.247-0.276l0.281-0.18l2.123,0.23l1.631-0.193
		l1.503-0.562l1.279-0.91l0.323-0.421l0.14-0.298l0.238-0.161l0.624-0.02l1.149-0.385l1.311-0.097l1.808-0.431l0.892-0.019
		l0.198,0.099l0.425,0.365l0.284,0.105l1.02,0.233l0.493-0.019l0.849-0.27l0.483-0.086l0.215,0.196l1.521,1.933l0.307,0.179
		l0.478,0.127l0.321,0.006l0.687-0.091l0.29,0.019l0.14,0.089l0.182,0.273l0.096,0.083l0.447,0.158l3.125,1.501l0.946,0.041
		l1.695-0.957l1.091-0.274l1.12-0.06l0.86,0.212l0.98,0.852l0.518,0.655l2.282,2.893l2.282,2.894l2.283,2.894l2.283,2.892
		l2.279,2.893l2.282,2.892l2.283,2.89l2.282,2.892l0.872,1.105h0.35h0.028l0.75-0.215l1.444-0.674l0.805-0.144l0.603,0.307
		l1.287,1.475l0.676,0.508l1.713-0.967l1.781-1.734l0.648-0.382l0.849-0.812l0.574-0.256l0.729-0.028l0.623,0.145l1.131,0.504
		l0.532-0.152l0.679,0.159l0.718,0.255l0.648,0.132l1.919-0.105l0.64,0.105l1.919,0.587l0.676,0.073l0.623,0.138l1.25,0.584
		l0.723,0.084l0.401-0.183l0.791-0.696l0.33-0.154l1.872-0.099l2.211-0.657l0.65-0.07l0.624,0.074l1.973,0.547l1.112-0.005
		l3.427-1.236l1.317-0.18l3.836,0.368l1.234-0.188l1.043-0.359l0.291-0.053l0.286-0.094l0.236-0.232l0.157-0.305l0.057-0.309
		l0.146-0.382l0.345-0.095l0.407,0.011l0.336-0.059l0.316-0.26l0.557-0.577l0.359-0.178l0.261-0.01l0.533,0.156l2.101,0.179
		l4.724,1.104l0.875,0.55l0.801,0.773l0.836,0.633l1.188,0.109l0.03,0.003l-0.191,0.143l-0.597,0.448l-0.325,0.353l-0.134,0.418
		l0.006,1.164l1.11,1.746l0.774,0.554l0.229,0.609l0.072,0.696l-0.117,0.518l-0.37,0.305l-1.087,0.464l-0.431,0.265l-1.42,1.559
		l-0.277,0.479l-1.794,1.698l-0.72,1.091l-0.482,1.199l-0.239,1.297l0.002,1.387l0.341,1.777l0.053,0.596l0.103,0.137l0.449,0.44
		l0.101,0.147l-0.082,0.365l-0.179,0.248l-0.211,0.197l-0.18,0.223l-0.331,1.093l-0.165,0.163l-0.361,0.092l-0.325,0.234
		l-0.555,0.604l-0.253,0.176l-0.888,0.341l-0.162,0.13l-0.291,0.348l-0.163,0.141l-0.138,0.026l-0.337-0.052l-0.14,0.025
		l-1.12,0.932l-0.746,1.194l-0.274,1.271l0.291,1.159l0.272,0.486l0.191,0.452l0.117,0.53l0.037,0.717l-0.062,0.262l-0.27,0.712
		l-0.079,0.369l-0.011,0.345l0.028,0.311l0.064,0.296l0.106,0.302l0.188,0.291l0.541,0.628l0.11,0.206l-0.064,0.321l-0.14,0.207
		l-0.141,0.151l-0.065,0.155l0.053,1.343l-0.051,0.574l-0.389,1.176l-0.204,1.162l-0.025,0.704l0.059,0.201l0.274,0.531l0.079,0.205
		l-0.011,0.37l-0.098,0.204l-0.045,0.176l0.154,0.282l-0.212,0.565l-0.07,1.33l-0.233,0.484l-0.302,0.484l-0.151,0.657l-0.095,1.677
		l-0.191,0.799l0.044,0.963l-0.044,0.292l-0.165,0.247l-0.21,0.145l-0.174,0.2l-0.05,0.419l0.098,0.335l0.202,0.286l0.256,0.239
		l0.268,0.189v-0.205l0.56,0.4l0.216,0.398l0.252,1.055l0.123,0.12l0.372,0.132l0.12,0.179l0.012,0.246l-0.171,0.42l-0.045,0.242
		l0.096,0.395l0.421,0.664l0.098,0.392l-0.078,0.359l-0.538,0.99l-0.152,1.134l0.165,1l0.261,0.937l0.137,0.944l0.255,0.574
		l0.566,0.464l0.564,0.599l0.256,0.976l0.331,0.344l0.198,0.557l-0.086,0.501l-0.003,0.016l0.199,0.109l0.264,0.717l0.092,1.87
		l0.141,0.645l1.203,2.091l0.285,0.742l0.169,1.491l0.211,0.703l0.53,0.642l0.581,0.291l0.55,0.006l0.56-0.104l0.616-0.04
		l1.132,0.531l0.855,1.141l2.031,5.294l0.415,0.585l0.443,0.306l1.13,0.446l0.998,1.037l-0.145,1.259l-0.777,1.261l-1.821,2.276
		l-0.368,0.28l-0.311,0.108l-0.658,0.129l-0.359,0.173l-0.564,0.523l-1.291,1.193l-1.287,1.196l-1.291,1.193l-1.287,1.194
		l-1.289,1.193l-1.289,1.194l-1.287,1.194l-1.289,1.194l-0.753,0.699l-0.501,0.842l-0.02,2.061l0.442-0.352l0.238-0.416l0.302-0.364
		l0.602-0.159l0.659,0.033l0.337-0.028l0.577-0.291l0.255,0.106l0.328,0.369l1.241,0.602l0.746,0.151l0.6-0.221l0.574-0.143
		l0.546,0.447l0.426,0.677l0.218,0.542l0.168,1.357l0.177,0.661l0.358,0.282l1.351,0.022l0.557,0.171l0.454,0.405l0.126,0.252
		l0.18,0.568l0.124,0.227l0.275,0.202l0.644,0.313l0.126,0.194l0.106,0.246l0.471,0.591l0.123,0.117l0.378,0.111l0.214,0.268
		l0.154,0.336l0.197,0.313l0.286,0.221l0.667,0.361l0.278,0.24l0.145,0.307l0.137,0.411l0.176,0.363l0.264,0.156l0.33,0.098
		l0.33,0.236l0.572,0.571l0.275,0.17l1.059,0.344l1.015,0.612l0.238,0.23l0.109,0.299l0.011,0.571l0.168,0.271l0.193,0.604
		l-0.4,0.616l-0.58,0.548l-0.342,0.4l0.012,0.555l0.479,1.148l0.213,0.93l0.494,1.281l0.258,0.401l0.456,0.255l0.544,0.167
		l0.452,0.242l0.191,0.485l0.104,1.63l-0.104,0.528l-0.132,0.22l-0.485,0.622l0.076,0.377l0.213,0.31l0.224,0.244l0.233,0.387
		l0.564,0.391l0.129,0.232l0.075,0.326l0.541,1.02l2.586,6.869l0.086,0.652v1.342l0.117,0.593l0.292,0.654l0.641,1.057l0.288,0.647
		l0.118,0.668l-0.205,1.233l0.113,0.418l0.281,0.31l0.345,0.276l0.306,0.323l0.317,0.599l0.23,0.74l0.031,0.72l-0.554,1.115
		l0.151,0.712l0.627,1.288l-1.154,0.23l-1.95,0.543l-2.618,0.726l-0.628-0.1l-0.252-0.759l-0.112-1.569l0.74-8.663l-0.281-1.909
		l-1.029-3.165l-1.16-2.357l-3.281-4.349l-0.718-1.275l-0.956-2.354l-0.608-1.115l-0.757-0.748l-0.48-0.234l-1.291-0.463
		l-0.454-0.044l-0.283,0.163l-0.51,0.535l-0.278,0.135l-1.051,0.134l-0.513,0.326l-0.815,0.706l-1.16,0.551l-2.31,2.453l-3.632,4.84
		l-0.914,0.86l-1.194,0.677l-0.983,0.355l-1.073,0.254l-1.084,0.034l-1.004-0.296l-1.009-0.829l-0.809-1.171l-0.619-1.311
		l-0.662-1.931l-0.297-0.551l-0.452-0.415l-0.692-0.281l-0.62-0.126l-0.221-0.104l-0.243-0.228l-0.064-0.224l-0.005-0.604
		l-0.143-0.2l-0.26,0.212l-1.805,4.505l-0.585,0.867l0.198,0.125l0.763,0.095l0.281,0.357l-0.065,0.66l0.065,0.544l1.126,0.048
		l0.241,0.148l0.084,0.263l-0.029,0.379l0.089,0.198l0.252,0.185l0.515,0.253l-2.265,0.003l-1.44,0.002l-3.797,0.003l-5.367,0.005
		l-6.152,0.006l-6.153,0.006l-5.367,0.005l-3.795,0.003h-1.441l-1.233-0.152l-2.281-0.967l-2.189-0.461l-1.154,0.075l-2.069,0.942
		l-1.234,0.104l-0.643-0.092l-0.533-0.014l-0.518,0.115l-1.289,0.674l-0.552,0.163l-1.012-0.007l-0.451-0.003l0.221,1.167
		l-0.013,2.068l-0.011,2.068l-0.012,2.067l-0.011,2.069l-0.012,2.068l-0.01,2.068l-0.013,2.065l-0.012,2.068l-0.008,1.801
		l0.687,0.065l1.254-0.812l0.756-0.207l0.388,0.017l0.386,0.065l0.264,0.162l0.047,0.661l0.316,0.073l2.892-0.426l0.697,0.025
		l1.308,0.454l0.311,0.037l0.989-0.016l0.958-0.137l0.287,0.037l0.27,0.128l0.131,0.134l0.092,0.135l0.153,0.137l0.568,0.337
		l0.309,0.056l1.423-1.034l0.478-0.123l0.487,0.089l1.503,0.773l0.438,0.308l0.514,0.641l0.51,0.339l0.222,0.219l0.081,0.278
		l0.031,0.352l0.089,0.308l0.658,0.407l-0.17,1.087l0.484,0.465l0.697,0.269l0.355,0.21l0.197,0.252l0.002,0.408l-0.223,0.14
		l-0.288,0.047l-0.183,0.109l-0.067,0.628l0.296,1.342v0.69l-0.204,0.319l-0.315,0.233l-0.218,0.263l0.09,0.415l0.242,0.23
		l0.653,0.306l0.223,0.204l0.327,0.673l0.113,0.543l-0.187,0.379l-0.562,0.184l-0.273-0.04l-0.564-0.208l-0.315,0.006l-0.233,0.146
		l-0.322,0.454l-0.214,0.143l-0.487,0.031l-1.102-0.165l-0.543,0.034l0.128-0.827l-0.281-0.33l-0.545,0.006l-0.664,0.183
		l-0.609,0.28l-0.192-0.104l-2.129-2.147l-0.546-0.37l-0.608-0.143l-0.771,0.096l-0.593,0.261l-0.969,0.625l-0.559,0.067
		l-0.599,0.26l-0.315,0.659l-0.438,0.504l-0.966-0.202l-0.849-0.381l-0.457,0.039l-1.149,0.896l-1.043,0.55l-1.137,0.414
		l-1.221,0.249l-2.062,0.124l-0.585,0.168l-0.571,0.096l-0.711-0.14l-0.684,0.019l-0.645,0.299l-0.564,0.159l-0.446-0.407
		l-0.056,2.093l-0.022,0.768l-0.056,2.021l-0.081,2.858l-0.087,3.278l-0.09,3.278l-0.081,2.858l-0.056,2.021l-0.02,0.768
		l-0.04,1.511l0.173,1.06l0.351,0.628l1.168,1.343l1.531,1.402l0.671,0.998l0.323,0.267l0.561,0.221l1.196,0.267l0.516,0.326
		l0.194,0.283l0.282,0.672l0.226,0.302l0.301,0.211l0.693,0.323l0.31,0.218l0.899,0.983l0.455,0.367l2.406,0.899l0.511,0.274
		l0.525,0.448l0.371,0.532l0.242,0.603l0.14,0.669l0.015,0.893l0.061,0.295l0.159,0.305l0.198,0.23l0.173,0.252l0.082,0.364
		l-0.197,0.712l-0.939,1.418l-0.193,0.544l0.302,0.706l1.134,1.278l0.239,0.426l-0.089,0.771l0.073,0.302l0.272,0.429l0.201,0.18
		l0.219,0.112l0.209,0.165l0.18,0.327l0.033,0.352l-0.072,0.283l-0.019,0.302l0.2,0.404l0.25,0.208l0.656,0.28l0.281,0.177
		l0.659,0.958l0.183,0.152l0.302,0.047l0.154,0.065l0.092,0.121l0.122,0.227l-0.065,0.072l0.159,1.141l-0.065,0.336l-0.191,0.619
		l0.004,0.351l1.134,1.826l0.331,0.902l-0.651,1.683l0.001,0.021l0.083,1.348l-0.493,2.778l0.022,1.378l-0.551,2.056l0.01,0.613
		l-0.436,1.512l-0.337,1.848l-0.883,4.85l-0.883,4.854l-0.884,4.851l-0.882,4.852l-0.883,4.855l-0.883,4.853l-0.884,4.856
		l-0.882,4.854l-0.882,4.855l-0.885,4.858l-0.881,4.856l-0.883,4.86l-0.883,4.858l-0.883,4.859l-0.882,4.863l-0.883,4.86
		l-0.034,0.069l-0.033,0.065l-0.034,0.065l-0.034,0.065l-0.033,0.065l-0.034,0.069l-0.035,0.069l-0.031,0.065l-0.033,0.062
		l-0.034,0.069l-0.033,0.069l-0.033,0.065l-0.034,0.065l-0.033,0.069l-0.034,0.069L530.412,570l-0.836-1.677l-0.526-0.776
		l-0.61-0.711l-0.903-0.736l-3.045-1.556l-0.803-0.804l-0.317-0.994l-0.169-1.082l-0.373-1.06l-0.719-1.029l-0.983-1.035
		l-1.13-0.823l-1.157-0.405l-0.846,0.09l-0.648,0.393l-1.182,1.082l-0.774,0.333l-0.801-0.009l-1.607-0.399l-0.321-0.221
		l-4.082-2.144l-1.308-0.143l1.01-1.58l2.36-3.689l2.359-3.686l2.36-3.692l2.36-3.688l2.361-3.688l2.359-3.69l2.36-3.684l2.36-3.686
		l0.675-1.071l0.005-0.025l-0.167-0.056l-0.345-0.271l-0.25-0.364l-0.19-0.445l-0.386-1.326l-0.326-0.221l-0.614,0.408l-0.173,0.277
		l-0.135,0.321l-0.163,0.252l-0.26,0.068l-0.278-0.159l-0.053-0.265l0.01-0.305l-0.089-0.302l-0.596-0.467l-0.512,0.146l-0.5,0.233
		l-0.558-0.212l-0.338-0.539l-0.424-1.279l-0.378-0.557l-0.66-0.327l-0.578,0.193l-0.602,0.367l-0.737,0.199l-0.151-0.09
		l-0.19-0.221l-0.145-0.277l-0.019-0.255l0.144-0.14l0.512-0.193l0.148-0.096l0.142-0.654l-0.379-0.293l-0.639-0.068l-0.646,0.006
		l-0.333,0.078l-0.708,0.308l-0.313,0.025l-0.353-0.174l-0.169-0.255l-0.106-0.308l-0.175-0.327l-0.377-0.321l-0.528-0.261
		l-0.569-0.174l-0.506-0.065l-0.466-0.233l-0.371-0.433l-0.393-0.249l-0.526,0.333l-0.075,0.28l0.025,0.339l-0.026,0.286
		l-0.232,0.125h-1.241l-0.207-0.162l-0.054-0.37l0.001-0.417l-0.04-0.305l-0.186-0.327l-0.948-0.787l-0.114-0.059l-0.001-0.875
		l-0.072-0.236l-0.155-0.149l-0.779-0.1l-0.559-0.134l-1.108-0.395l-1.038-0.682l-1.559-1.662l-0.914-0.557l-0.623,0.277
		l-0.754-0.146l-1.276-0.542l-0.865-0.022l-0.317,0.423l0.066,0.685l0.276,0.766l-0.273,0.152l-0.353,0.041l-0.376-0.081
		l-0.758-0.454l-0.394-0.009l-0.835,0.146l-0.687,0.324l-0.575,1.425l-0.852,0.432l-0.566,0.442l-0.325,0.068l-0.319-0.106
		l-0.361-0.268l-0.328-0.075l-0.446,0.174l-0.628,0.33l-0.558,0.134l-0.236-0.414l-2.152,1.049l-1.018,0.215l-0.341-0.629l0.12-0.23
		l0.415-0.374l0.082-0.255l-0.109-0.311l-0.714-0.906l-0.527-0.937l-0.306-0.109l-0.418,0.429l-0.297,1.13l-0.232,0.355l-0.479-0.23
		l-0.208-0.461l-0.039-1.257l-0.146-0.566l-0.339-0.258l-1.732-0.358l-0.622-0.336l-0.56-0.433l-0.592-0.355l-0.711-0.128
		l-1.008,0.52l-0.583,0.093l-0.258-0.51l0.045-1.061l-0.23-0.162l-0.656,0.299l-1.751,1.108l-0.303,0.022l-0.146,0.311l-1.087,1.662
		l-1.421,1.102l-0.221,0.233l-0.138,0.669l-0.37,0.37l-0.53,0.131l-1.886-0.268l-0.979,0.012l-0.84,0.33l-0.841,0.728l-1.326,1.522
		l-0.449,0.14l-1.942-0.448l-0.302,0.025l-0.774,0.159l-0.155,0.125l0.026,0.616l-0.086,0.212l-0.258,0.081l-0.7,0.075l-1.202,0.318
		l-0.675,0.056l-0.558-0.128l-0.532-0.283l-0.4-0.364l-0.154-0.364l-0.269-0.234l-3.085-0.485l-0.568-0.181l-1.367-1.105
		l-0.529-0.286l-0.552-0.084l-0.376,0.485l-0.793,1.643l-0.381,0.355l-0.499,0.168l-0.177-0.068l-0.103-0.787l-0.085-0.308
		l-0.126-0.264l-0.149-0.215l-0.372,0.177l-0.244,0.218l-0.146,0.28l-0.079,0.37l-0.791-0.563l-0.502-0.174l-0.746,0.373
		l-0.86,0.305l-0.359,0.345l-0.415,0.149l-1.275,0.255l-0.278,0.003l-0.236-0.19l-0.286-0.504l-0.512-1.391l-0.437-0.383
		l-0.098-0.171l-2.073-1.139l-0.073,0.324l-0.356,0.682l-0.395,0.358l-0.185-0.641l-0.267-0.268l-1.312-0.327l-0.494-0.333
		l-0.075-0.23l-0.148-0.899l-0.095-0.162l-0.41-0.314l-0.095-0.149l-0.062-0.181l-0.284-0.457l-0.062-0.296l0.039-0.299l0.098-0.199
		l0.272-0.327l1.093-0.987l0.283-0.653l0.886-1.459l-0.406-0.38l-0.235-0.632l-0.165-0.691l-0.204-0.563l-0.522-0.775l-0.204-0.395
		l-0.115-0.473l0.042-0.423l0.302-0.756l0.067-0.277l-0.174-0.504l-0.711-0.837l-0.16-0.417l0.222-1.12l-0.204-0.33l-0.252-0.162
		l-0.28-0.121l-0.289-0.208l-0.804-0.902h-0.308l-0.123,0.796l-0.191,0.103l-1.009-0.261l-0.462,0.056l-0.485,0.473l-0.228,0.333
		l-0.308-0.047l-0.723-0.656l-0.376-0.24l-0.364-0.05l-0.333,0.016l-0.428-0.05l-0.331,0.044l-0.14-0.025l-0.043-0.103l-0.1-0.404
		l-0.044-0.112l-1.945-1.191l-0.603-0.747l0.065-1.163l0.343-0.996l0.259-0.457l0.731-0.432l0.03-0.576l-0.316-1.257l-0.042-0.395
		l0.005-0.317l-0.057-0.299l-0.232-0.323l-0.634-0.467l-0.336-0.526l-1.116-0.523l-0.278-0.457l0.472-0.572l0.145-0.317
		l-0.471-0.218l-0.171-0.199l-0.142-0.243l-0.057-0.205l-0.036-0.653l-0.057-0.252l-0.095-0.218l-0.113-0.028l-0.4,0.056
		l-0.121-0.028l-0.055-0.137l-0.046-0.33l-0.219-0.466l-0.078-0.333l-0.156-0.268l-0.707-0.205l-0.573-0.423l-0.333-0.096
		l-0.698-0.118l-0.571-0.32l-0.421-0.457l-0.251-0.541l-0.453,0.168l-0.484,0.762l-0.502,0.283l-0.359-0.009l-0.481-0.103
		l-0.803-0.283l-0.417-0.274l-0.293-0.314l-0.542-0.849l-0.462-1.194l-0.174-0.28l-0.497-0.18l-0.939,0.212l-0.411-0.221
		l-0.042-0.249l0.281-0.529l-0.034-0.249l-0.25-0.215l-0.152,0.081l-0.106,0.193l-0.109,0.131l-0.329,0.155l-0.157,0.156
		l-0.171,0.047l-0.37-0.156l-0.244-0.202l-0.145-0.258l-0.704-2.096l-0.344-0.317l-0.466,0.88l-0.82,0.025l-1.832-0.7l-1.795-0.327
		l-0.799-0.439l-0.673-0.88l-0.429-1.362l-0.3-0.401l-0.751-0.504l-0.184-0.274l0.207-0.355l0.373-0.068l0.484,0.084h0.419
		l0.18-0.333l-0.165-0.379l-0.308-0.317l-0.173-0.352l0.235-0.482l-0.234-0.103l-0.52-0.016l-0.292-0.087l-0.204-0.137l-1.019-1.129
		l-0.209-0.438l0.012-0.575l0.139-0.258l0.387-0.333l0.072-0.211l-1.437-3.1l-0.061-0.271l-0.001-0.012l-0.033-0.333l-0.064-0.302
		l-0.149-0.131l-0.41-0.016l-0.161-0.068l-0.261-0.42l-0.397-0.445l-0.357-0.311l-1.827-1.098l-0.784-0.619l-1.266-1.337
		l-0.851-1.43l-0.288-0.23l-0.324,0.065l-0.25,0.146l-0.19,0.143l-0.152,0.075l-0.416-0.019l-0.179-0.112l-0.094-0.152l-0.153-0.146
		l-0.208-0.156l-0.126-0.131l-0.189-0.09l-0.749-0.072l-0.592-0.152l-0.31-0.034l-0.533-0.184l0.236-0.404l0.828-0.628l-1.027-2.083
		l-0.428-0.603l-0.63-0.557l-0.358,0.084l-0.75,1.2l-0.338,0.264l-0.301,0.025l-0.5-0.18l-1.027-0.221l-0.645-0.283l-0.401-0.311
		l-1.231-1.337l-0.188-0.143l-0.281-0.084l-0.528-0.012l-0.256-0.09l-0.348-0.336l-1.183-1.626l-0.572-0.451l-0.633-0.32
		l-1.354-0.367l-0.603-0.065l-0.462,0.099l-0.289,0.308l-0.103,0.582l-0.151,0.386l-0.373,0.445l-0.476,0.367l-0.456,0.159
		l-0.556-0.33l-1.91-0.7l-1.684-0.32l-0.586-0.423l-0.723-0.252l-1.751-1.076l-1.415-1.263l-0.536-0.177l-0.309-0.196l-0.382-0.429
		l-0.476-0.429l-0.599-0.196l-0.567,0.068l-1.297,0.295l-0.692,0.065l-0.669-0.056l-0.583-0.143l-0.496-0.199l-0.847-0.473
		l-1.206-0.892l-0.252-0.414l-1.829-1.129l-0.748-0.69l-0.331-0.485l-0.137-0.578l-0.149-0.379l-2.017-2.55l-0.131-0.358
		l-0.289-0.451l-0.678,0.084l-0.762,0.243l-0.549,0.028l-0.154-0.236l-0.169-0.796l-0.18-0.32l-0.252-0.112l-0.336-0.025
		l-0.655,0.034l-0.737-0.05l-0.651-0.149l-0.6-0.261l-0.578-0.379l-0.83-0.877l-0.3-0.134l-0.334,0.093l-0.546,0.414l-0.157,0.093
		l-0.168,0.152l-0.748,0.892l-0.28,0.103l-0.32,0.062l-0.65,0.04l-0.284-0.053l0.015,0.196l-0.075,2.242l0.311,1.996l-0.532,0.354
		l-2.985,0.345l-0.779,0.401l-0.44,0.056l-0.569-0.196l-0.804-0.749l-0.476-0.333l-0.432-0.128l-1.466-0.162l-1.04-0.283
		l-0.372,0.14l0.076,1.197l-0.459,0.012l-1.073-0.482l-0.379-0.037l-2.09,0.314l-0.456-0.019l-0.432-0.155l-0.513-0.376
		l-0.656-0.662l-0.306-0.218l-0.499-0.174l-0.375-0.062l-1.203-0.022l-0.894-0.302l-1.151-1.3l-0.632-0.159l-0.409-0.103
		l-0.522,0.096l-1.516,0.569l-0.655,0.037l-0.47-0.14l-0.443-0.227l-0.568-0.205l-3.201-0.65l-1.051-0.386l-0.81-0.622l-0.311-0.768
		l-0.132-0.899l-0.272-1.011l-0.193-3.163l-0.406-1.459l-1.242-0.311l-0.144,0.02l-0.879,0.123l-1.098-0.435l-1.978-1.365
		l-0.639-0.945l-0.196-2.164l-0.899-0.706l-0.743-0.006l-2.399,0.911l-0.605,0.124l-0.609-0.011l-0.642-0.145l-0.701-0.27
		l-0.319-0.272l-0.062-0.325l0.009-0.334l-0.107-0.306l-0.292-0.308l-0.145-0.019l-0.154,0.081l-0.327-0.006l-2.046-0.771
		l-2.133-0.078l-1.266-0.616l-3.916-2.961l-0.616-0.327l-1.789-0.482l-0.576-0.28l-0.71-0.541l-2.831-3.148l-0.337-0.263
		l-0.213-0.166l-1.667-0.383l-0.452,0.037l-0.435,0.249l-0.169-0.485l-0.63-0.666l-0.115-0.311l-0.051-0.578l-0.282-0.084
		l-0.422,0.134l-0.473,0.078l-0.704-0.218l-0.59-0.459l-0.453-0.607l-0.296-0.666l-0.309-0.509l-0.888-0.716l-0.631-0.88
		L263.724,399.259z M284.703,363.342l0.043,0.145l0.705,0.863l0.279,0.652l0.033,0.968l-0.334,0.828l-0.817,0.245l-0.697-0.414
		l-0.812-0.821l-0.676-0.902l-0.283-0.648l0.094-0.418l0.206-0.184l0.203-0.141l0.142-0.32l-0.218-0.327l-0.436-0.818l0.055-0.354
		l0.3-0.163l0.518,0.273l0.655-0.218l0.627,0.354l0.168,0.552l0.235,0.278l0.082,0.376L284.703,363.342z M291.596,361.265
		l0.431,0.265l1.129,1.485l0.457,0.354l1.014,0.581l0.5,0.4l-0.704,0.458l-0.948,0.038l-0.897-0.213l-0.551-0.283l0.222-0.186
		l-0.222-0.223l0.628-0.596l-0.01-0.381l-0.398-0.199l-0.538-0.059l-0.465-0.31l-0.186-0.635l0.116-0.526L291.596,361.265z
		 M294.49,362.295l1.157,0.888l0.408,0.439l-0.149,0.448l-0.504,0.062l-0.779-0.39l-1.364-1.037l-0.828-1.096l-0.184-0.346
		l-0.097-0.354l-0.037-0.351l0.077-0.15l0.245,0.238l0.093,0.072l0.338,0.134l0.078-0.189l0.088-0.088l0.105-0.055l0.12-0.097
		l0.839,0.84l0.119,0.234l0.142,0.574L294.49,362.295z M308.124,313.966l0.62,0.311l0.626-0.076l0.616-0.145l0.585,0.117
		l-0.551,0.877l-0.389,0.357l-0.382-0.155l-0.526-0.667l-0.741,0.28l-0.716,0.118l-1.579-0.015l-0.593-0.129l-0.377-0.029
		l-0.463,0.088l-0.267,0.214l-0.189,0.265l-0.231,0.239l-1.108,0.339l-0.125,0.092l-0.122-0.254l0.012-0.419l0.147-0.392
		l0.282-0.173l0.4-0.13l0.66-0.582l0.377-0.131l0.402,0.048l0.73,0.165l0.419-0.006l-0.141-0.243l-0.457-0.316l-0.223-0.265h1.045
		l-0.719-0.178l0.079-0.288l0.495-0.319l0.536-0.261l-0.164-0.055l-0.1-0.061l-0.12-0.054l-0.233-0.036l0.039-0.126l0.04-0.087
		l0.146-0.199l0.802,0.413l0.462,0.383l0.323,0.428l0.244,0.492L308.124,313.966z M176.988,62.597l-0.25-0.623l0.086-0.618
		l0.318-0.527l0.462-0.337l0.14,0.345l-0.552,2.33l-0.381,0.063l-0.19-0.281L176.988,62.597z M186.882,38.019l-0.105-0.69
		L187,36.672l0.403-0.349l0.42,0.24l0.153,0.541l-0.176,0.449l-0.397,0.318L186.882,38.019z M179.99,323.208l-0.108-0.071
		l-0.031-0.075l0.05-0.162l0.145-0.173l0.173-0.059l0.051-0.081l0.029-0.265l0.158-0.086l0.169,0.022l0.162-0.058l0.088,0.026
		l0.107,0.402l-0.048,0.065l-0.137,0.043l-0.125,0.13l-0.157-0.015l-0.364,0.319L179.99,323.208z M283.043,352.404l0.42-0.365
		l0.252,0.027l-0.056,0.421v0.421l-0.029,0.42l-0.449,0.505l-0.337,0.281l-0.449,0.112l-0.365-0.112v-0.309l0.477-0.056l0.141-0.449
		l0.141-0.589L283.043,352.404z M361.265,128.76l0.33-0.308l0.232,0.155l0.367,0.154l0.542,0.156l0.077,0.368l-0.329,0.348
		l-0.29-0.039l-0.349-0.097l-0.252,0.155l-0.077,0.387l-0.116,0.213l-0.252,0l-0.116-0.368l-0.039-0.503l0.097-0.387L361.265,128.76
		z M225.777,30v0.02l0.017-0.005l-0.003,0.031l-0.029,0.008v-0.021l-0.015,0.006V30.01L225.777,30z"/>
</g>
</svg>
