<?xml version="1.0" encoding="utf-8"?>
<!-- Svg Vector Icons : http://www.onlinewebfonts.com/icon -->
<!DOCTYPE svg PUBLIC "-//W3C//DTD SVG 1.1//EN" "http://www.w3.org/Graphics/SVG/1.1/DTD/svg11.dtd">
<svg version="1.1" xmlns="http://www.w3.org/2000/svg" xmlns:xlink="http://www.w3.org/1999/xlink" x="0px" y="0px" viewBox="0 0 1000 1000" enable-background="new 0 0 1000 1000" xml:space="preserve">
<metadata> Svg Vector Icons : http://www.onlinewebfonts.com/icon </metadata>
<g><g transform="translate(0.000000,511.000000) scale(0.100000,-0.100000)"><path d="M4536.4,5007.7c-576.8-70.1-1097.6-208.3-1532.2-404.6C1459.9,3900.1,420.5,2536.2,136,843.8c-28-174.3-36-328.5-36-731c0-556.8,20-739.1,130.2-1181.7c500.7-2014.9,2225.2-3503,4292.1-3705.3c314.5-32,919.3-16,1215.8,30c989.4,154.2,1922.8,614.9,2645.8,1307.9C9175-2677.3,9685.7-1699.9,9856-618.3c44.1,286.4,58.1,895.3,28,1205.7c-200.3,2052.9-1678.4,3777.4-3675.3,4286.1c-404.6,102.1-610.9,128.2-1121.6,136.2C4822.8,5011.7,4574.4,5011.7,4536.4,5007.7z M4848.8,4567.1c-8-18-420.6-737.1-917.3-1598.3c-498.7-859.2-953.4-1654.4-1011.4-1766.5c-118.2-230.3-196.3-450.6-234.3-675c-16-86.1-32.1-160.2-38.1-166.2c-18-20-1339.9,2293.3-1323.9,2319.3c72.1,124.2,300.4,390.6,506.7,598.9c799.1,799.1,1830.6,1257.8,2964.2,1315.9C4848.8,4599.1,4858.8,4593.1,4848.8,4567.1z M5708,4539.1c1221.8-200.3,2291.3-879.3,2992.3-1900.7c56.1-82.1,102.1-156.2,102.1-166.2s-907.3-16-2016.9-16c-2211.2,2-2185.1,2-2533.6-118.2c-92.1-30-184.3-64.1-204.3-72.1c-38.1-16-38.1-14,2,52.1c22,38.1,314.4,540.8,646.9,1119.6S5313.5,4509,5329.5,4535C5365.6,4589.1,5399.6,4591.1,5708,4539.1z M2032.8,547.3C2567.5-380,3054.2-1207.2,3116.3-1289.3c110.2-146.2,346.5-386.6,468.7-476.7l60.1-42.1l-1351.9-2H941.2l-78.1,186.3c-140.2,328.5-242.4,691-306.5,1085.6c-48.1,308.4-48.1,995.4,2,1301.9c42.1,266.4,134.2,636.9,204.3,835.2c68.1,188.3,268.4,636.9,286.4,636.9C1055.4,2235.8,1498,1474.7,2032.8,547.3z M5459.7,1977.4c430.6-112.2,811.2-364.5,1071.5-711c122.2-158.2,276.4-480.7,332.5-683c56.1-212.3,62.1-689,10-899.3c-88.1-350.5-264.4-665-512.7-915.3c-194.3-194.3-284.4-260.4-514.7-374.5c-707-354.5-1558.2-234.3-2141.1,300.4c-194.3,180.3-314.5,342.5-432.6,586.8c-150.2,306.4-184.3,460.7-186.3,821.2c0,220.3,8,336.5,34,438.6c168.2,665,648.9,1189.7,1293.9,1404C4712.6,2043.5,5157.3,2057.5,5459.7,1977.4z M9088.9,1949.3c166.2-380.5,286.4-799.2,348.5-1195.7c48.1-318.5,48.1-963.4,0-1281.8c-40.1-260.4-148.2-691-224.3-895.3c-72.1-192.3-252.4-586.8-268.4-586.8c-6,0-426.6,723-933.3,1604.3c-506.7,881.3-975.4,1684.4-1039.5,1786.6c-114.2,176.3-422.6,512.7-562.8,610.9l-60.1,42.1l1351.9,2h1351.9L9088.9,1949.3z M8019.4-1275.3c354.5-616.9,650.9-1131.6,654.9-1143.7c26-66.1-472.7-630.9-793.1-897.3c-739.1-618.9-1586.3-961.4-2591.7-1047.5c-146.2-12-156.2-12-144.2,22c8,20,420.6,739.1,917.3,1598.3C6561.3-1882.2,7011.9-1095,7066-992.9c110.2,210.3,202.3,470.7,234.3,652.9c32,190.3,40.1,220.3,58.1,200.3C7368.4-149.7,7664.9-660.4,8019.4-1275.3z M5942.4-2094.5c-22-36-316.4-548.8-654.9-1137.6c-340.5-588.9-628.9-1083.5-642.9-1099.6c-22-26-60.1-24-276.4,6c-1237.8,172.2-2357.4,869.2-3074.4,1912.7c-56.1,82.1-102.1,156.2-102.1,166.3c0,10,905.3,16,2010.9,16c2229.2-2,2193.2-4,2559.7,128.2C5996.5-2018.3,5988.4-2018.3,5942.4-2094.5z"/></g></g>
</svg>