<?xml version="1.0" encoding="utf-8"?>
<!-- Svg Vector Icons : http://www.onlinewebfonts.com/icon -->
<!DOCTYPE svg PUBLIC "-//W3C//DTD SVG 1.1//EN" "http://www.w3.org/Graphics/SVG/1.1/DTD/svg11.dtd">
<svg version="1.1" xmlns="http://www.w3.org/2000/svg" xmlns:xlink="http://www.w3.org/1999/xlink" x="0px" y="0px" viewBox="0 0 1000 1000" enable-background="new 0 0 1000 1000" xml:space="preserve">
<metadata> Svg Vector Icons : http://www.onlinewebfonts.com/icon </metadata>
<g><g transform="translate(0.000000,511.000000) scale(0.100000,-0.100000)"><path d="M3639.2,3942c-145.6-47.9-281.7-136.1-394.8-258.7c-67.1-74.7-136.1-195.5-272.1-477.2l-180.1-377.5h-159.1h-159.1v168.6c0,105.4-7.7,176.3-23,191.6c-32.6,32.6-1607.8,32.6-1640.4,0c-13.4-13.4-23-86.2-23-189.7v-166.7L684.2,2821c-222.3-28.8-440.8-187.8-534.7-390.9l-42.2-90.1l-5.7-2748.1c-3.8-2705.9-3.8-2750,34.5-2851.6c74.7-203.1,201.2-346.9,383.3-440.8l105.4-53.7h4378.9h4378.9l111.1,57.5c145.7,72.8,302.8,241.4,362.2,387.1l44.1,111.1v2759.6c0,2673.3-1.9,2763.4-36.4,2855.4c-72.8,185.9-300.8,367.9-507.8,402.4c-67.1,11.5-70.9,15.3-63.2,70.9c11.5,74.7-38.3,170.6-111.2,212.7c-80.5,47.9-686.1,47.9-766.5,0c-72.8-42.2-122.7-138-111.1-212.7l9.6-61.3h-548.1h-550L7035,3206.1c-222.3,461.8-298.9,555.7-551.9,682.2l-162.9,80.5l-1285.9,3.8C3828.9,3976.5,3740.8,3974.6,3639.2,3942z M6318.3,3796.4c51.7-15.3,128.4-49.8,170.6-76.7l76.7-47.9H5003.7H3441.8l65.2,42.2c174.4,111.1,153.3,109.2,1489,111.1C6038.5,3825.1,6237.8,3821.3,6318.3,3796.4z M6922,3093.1l208.9-417.8H7562h429.3l5.7-289.4c5.7-253,9.6-293.2,40.2-312.4c23-15.3,42.2-15.3,67.1,0c28.8,19.2,32.6,59.4,38.3,312.4l5.8,291.3l617.1-5.8c605.6-5.7,619-5.7,703.3-51.7c111.1-57.5,185.9-126.5,235.7-222.3l42.2-76.7v-2750v-2750l-53.6-109.2c-30.7-61.3-92-143.7-139.9-185.9c-147.6-130.3-187.8-136.1-835.5-136.1h-571.1l-3.8,2589c-5.7,2443.4-7.7,2590.9-38.3,2612c-24.9,15.3-44.1,15.3-67.1,0c-32.6-21.1-34.5-168.6-40.2-2612l-3.8-2589H5463.6H2934v191.6c0,224.2-24.9,291.3-116.9,323.9c-42.2,15.3-446.5,21.1-1314.6,21.1H251.1l3.8,2698.2l5.7,2696.3l42.2,76.7c49.8,95.8,124.6,164.8,235.7,222.3l86.2,46l1126.8,5.7l1126.8,5.8l201.2,404.4c109.2,222.3,205,412,210.8,421.6c5.7,7.7,778,13.4,1717.1,11.5l1707.5-5.7L6922,3093.1z M2320.8,2943.6v-115h-689.9H941v115v115h689.9h689.9V2943.6z M9131.6,2939.8c15.3-24.9,15.3-44.1,0-67.1c-19.2-30.7-59.4-34.5-323.9-40.2c-310.4-5.8-354.5,3.8-354.5,70.9c0,72.8,36.4,80.5,352.6,74.7C9072.1,2972.3,9112.4,2968.5,9131.6,2939.8z M2776.9-3424.5l5.8-185.9l-1059.8,3.8l-1059.7,5.7l-86.2,44.1c-47.9,24.9-107.3,65.2-132.2,86.2c-47.9,44.1-155.2,201.2-155.2,228.1c0,7.7,557.7,13.4,1241.8,11.5l1239.9-5.7L2776.9-3424.5z"/><path d="M3800.2,3342.2c-15.3-15.3-23-90.1-23-207c0-116.9,7.7-191.6,23-207c32.6-32.6,2374.4-32.6,2407,0c30.7,30.7,30.7,383.3,0,413.9C6174.6,3374.8,3832.8,3374.8,3800.2,3342.2z M6076.9,3135.2v-76.7H5003.7H3930.5v76.7v76.7h1073.2h1073.2V3135.2z"/><path d="M1017.6,2228.8c-36.4-11.5-111.1-65.2-162.9-118.8c-136.1-134.1-174.4-277.9-120.7-458c30.7-105.4,189.7-264.5,295.1-295.1c180.1-53.7,323.9-15.3,458,120.7c195.5,193.6,195.5,438.8,0,632.4C1353,2246,1195.9,2284.4,1017.6,2228.8z M1291.7,2073.6c197.4-82.4,245.3-339.2,92-492.5c-214.6-216.5-567.2-23-511.7,279.8C906.5,2041,1117.3,2148.3,1291.7,2073.6z"/><path d="M4662.6,2232.6c-335.4-46-689.9-164.8-971.6-325.8c-247.2-141.8-419.7-277.9-624.7-492.5c-358.4-373.7-580.7-793.4-691.8-1312.7c-59.4-279.8-59.4-781.9,0-1061.7c118.8-550,341.1-956.3,741.6-1356.8c400.5-400.5,808.7-622.8,1356.8-741.6c260.6-55.6,762.7-59.4,1019.5-7.7c366,72.8,712.9,216.5,1025.3,423.5c185.9,122.6,576.8,513.6,699.5,699.5c207,312.4,350.7,659.2,423.5,1025.3c51.7,256.8,47.9,758.9-7.7,1019.5c-118.8,548.1-341.1,956.3-741.6,1356.8c-398.6,398.6-812.5,626.7-1347.2,737.8C5325.6,2242.2,4873.4,2261.4,4662.6,2232.6z M5559.4,2035.2c490.6-113.1,868.1-322,1226.5-682.2c371.8-369.9,592.2-781.9,703.3-1303.1c51.7-251.1,47.9-734-11.5-994.6c-84.3-387.1-226.1-693.7-454.2-998.4c-377.5-500.2-881.5-822.1-1504.4-960.1c-260.6-59.4-743.5-63.3-994.6-11.5c-521.3,111.2-933.3,331.5-1303.1,703.3c-367.9,366-578.7,755-691.8,1266.7c-59.4,260.6-63.2,743.5-11.5,994.6c111.2,521.3,331.5,933.3,703.3,1303.1c406.3,406.3,891.1,649.6,1448.8,726.3C4892.5,2110,5329.5,2088.9,5559.4,2035.2z"/><path d="M4773.7,1860.8c-15.3-3.8-93.9-17.2-172.5-28.7c-804.9-130.3-1523.5-755-1780.3-1550.3c-84.3-258.7-107.3-410.1-107.3-711c0-159.1,11.5-335.4,26.8-412c185.9-942.9,908.4-1665.3,1851.2-1851.2c174.4-34.5,649.6-34.5,824.1,0c720.5,141.8,1328,605.6,1655.7,1261c241.5,482.9,295.1,1101.9,143.7,1634.7c-49.8,170.6-222.3,546.2-295.1,638.1c-30.7,38.3-57.5,51.7-93.9,47.9c-70.9-7.7-72.8-69-3.8-184c459.9-745.5,429.2-1661.5-76.7-2380.1c-308.5-436.9-787.6-745.5-1349.1-866.2c-147.6-30.7-636.2-30.7-785.7,0c-885.4,189.7-1529.3,833.6-1719,1719c-30.7,147.6-30.7,638.1,0,785.7c187.8,885.4,833.6,1531.2,1719,1719c178.2,36.4,638.2,32.6,833.6-9.6c220.4-47.9,473.3-147.6,666.9-264.5c178.2-107.3,239.6-115,249.1-32.6c5.7,46-9.6,63.2-130.3,141.8c-350.7,226.1-808.7,354.5-1245.6,350.7C4884.9,1866.6,4789,1862.8,4773.7,1860.8z"/><path d="M4720.1,682.3c-210.8-55.6-358.4-143.7-523.2-306.6c-362.2-360.3-444.6-891.1-205-1347.2c80.5-155.2,314.3-389,469.5-469.5c254.9-134.2,548.1-168.7,818.3-99.7c216.6,55.6,364.1,139.9,530.8,306.6c241.5,239.5,358.4,542.3,337.3,870c-17.3,270.2-118.8,532.8-210.8,544.3c-84.3,9.6-99.6-53.7-42.2-168.6c285.5-563.4-44.1-1262.9-665-1408.5c-712.9-168.6-1362.5,481-1193.9,1193.9c86.2,366,375.6,655.4,741.6,741.6c226.1,53.7,433.1,30.7,653.5-70.9l132.2-61.3l36.4,44.1c44.1,53.7,24.9,101.6-55.6,143.7C5318,711,4963.4,749.4,4720.1,682.3z"/><path d="M1667.3,1377.9c-149.5-92-147.6-306.6,1.9-396.7c195.5-115,429.3,118.8,314.3,314.3C1918.3,1402.8,1770.8,1443.1,1667.3,1377.9z M1841.7,1228.4c49.8-61.3-24.9-155.2-90.1-113.1c-67.1,42.2-44.1,141.8,32.6,141.8C1803.3,1257.2,1828.3,1243.8,1841.7,1228.4z"/></g></g>
</svg>