<?xml version="1.0" encoding="utf-8"?>
<!-- Svg Vector Icons : http://www.onlinewebfonts.com/icon -->
<!DOCTYPE svg PUBLIC "-//W3C//DTD SVG 1.1//EN" "http://www.w3.org/Graphics/SVG/1.1/DTD/svg11.dtd">
<svg version="1.1" xmlns="http://www.w3.org/2000/svg" xmlns:xlink="http://www.w3.org/1999/xlink" x="0px" y="0px" viewBox="0 0 1000 1000" enable-background="new 0 0 1000 1000" xml:space="preserve">
<metadata> Svg Vector Icons : http://www.onlinewebfonts.com/icon </metadata>
<g><g transform="translate(0.000000,476.000000) scale(0.100000,-0.100000)"><path d="M2188.4,4273.5l-54.6-46.8l1.9-261.2c0-288.4,15.6-346.9,124.7-471.6c35.1-39,97.4-89.6,140.3-111.1l74.1-37V2168.8c0-1116.7,1.9-1183,39-1299.9c81.9-268.9,290.4-475.5,555.4-553.5l77.9-23.4l5.8-518.4l3.9-518.4l-1202.4-5.8l-1204.4-5.8L641-801.3c-224.1-93.5-393.7-268.9-489.2-508.7c-44.8-109.1-44.8-116.9-50.7-1210.2c-3.9-728.9,1.9-1144,15.6-1227.8c46.8-276.7,222.2-506.7,481.4-629.5l132.5-62.4l1379.8-5.8l1377.8-5.8v-116.9c0-105.2,5.8-124.7,56.5-175.4l56.5-56.5H4987c869.2,0,1401.2,7.8,1434.4,19.5c62.4,23.4,107.2,124.7,107.2,243.6v87.7h1344.7c1297.9,0,1350.5,1.9,1457.7,39c249.5,87.7,454.1,296.2,530.1,539.8c37,122.8,39,177.3,39,2011.2c0,1590.3-5.8,1902.1-29.2,2005.4c-70.1,294.3-274.8,555.4-543.7,686c-204.6,99.4-368.3,126.7-582.7,95.5c-220.2-33.1-419-134.5-573-294.3c-183.2-192.9-263.1-382-288.4-687.9c-7.8-85.7-31.2-202.7-52.6-257.3c-50.7-138.4-202.7-302.1-343-370.3C7386-733.1,7354.8-737,7119-742.8l-259.2-7.8v518.4c0,477.5,1.9,520.3,35.1,530.1c239.7,78,434.6,228,535.9,415.1c105.2,191,111.1,261.1,111.1,1496.7V3342l83.8,50.7c189,109.1,247.5,249.5,247.5,590.5c0,230-1.9,243.6-48.7,288.4l-46.8,48.7H5010.4H2243L2188.4,4273.5z M7541.9,3872.1c0-99.4-7.8-126.7-46.8-165.6c-25.3-25.3-76-50.7-111.1-58.5c-37-5.8-1134.2-7.8-2438-5.8l-2373.7,5.8l-52.6,52.6c-42.9,42.9-52.6,76-60.4,171.5l-7.8,116.9h2545.2h2545.2V3872.1z M7200.8,2147.3c0-1169.3,0-1169.3-42.9-1249.2C7099.5,789,7004,697.4,6898.8,648.7c-87.7-40.9-103.3-40.9-1900.1-40.9c-2009.3,0-1868.9-9.7-2026.8,128.6c-40.9,37-95.5,109.1-118.9,163.7l-46.8,97.4v1165.4v1163.5l2198.3-3.9l2196.4-5.8V2147.3z M9147.8,553.2c150-68.2,272.8-191,348.8-343L9559,81.6l5.8-1907.9l3.9-1909.9l-48.7-103.3c-56.5-115-134.5-187.1-263.1-247.5c-85.8-40.9-115-40.9-1407.1-46.8l-1321.3-5.8v1529.9v1527.9l444.3,7.8c393.7,7.8,456,13.6,557.4,50.7c155.9,58.5,280.6,140.3,395.6,263.1c181.2,191,251.4,360.5,280.6,666.5c13.6,136.4,33.1,228,68.2,302.1C8428.6,547.3,8820.3,703.2,9147.8,553.2z M6528.5-240c0-278.7-7.8-506.7-15.6-506.7c-9.7,0-27.3,21.4-39,46.8c-39,85.7-150.1,192.9-247.5,237.7l-97.4,46.8H4996.7H3866.4L3765-466.1c-105.2-52.6-212.4-161.8-230-235.8c-7.8-25.3-23.4-44.8-39-44.8c-23.4,0-27.3,87.7-27.3,506.7v506.7h1529.8h1529.8V-240z M6146.5-807.1l50.7-60.4v-1800.7V-4469H5008.4H3819.6v1812.4v1814.4l48.7,46.8l46.8,48.7h1091.3h1089.4L6146.5-807.1z M3484.4-2602l-5.8-1525.9H2153.3H828.1l-91.6,44.8c-48.7,25.3-124.7,83.8-169.5,130.6c-138.4,150.1-138.4,150.1-138.4,1354.5c0,1225.8-2,1208.3,154,1364.2c159.8,159.8,91.6,152,1586.4,154l1319.4,1.9L3484.4-2602z"/><path d="M3244.7,2952.2c-89.6-46.8-87.7-35.1-87.7-992c0-863.3,2-912.1,37-954.9c52.6-64.3,185.1-64.3,237.8,0c35.1,42.9,37,91.6,37,947.1c0,497-5.8,917.9-11.7,935.4c-13.6,33.1-105.2,87.7-148.1,87.7C3295.4,2975.6,3266.1,2963.9,3244.7,2952.2z"/><path d="M3917,2950.3c-97.4-48.7-97.4-56.5-93.5-1013.4l5.8-894.5l54.6-46.8c83.8-72.1,202.7-50.7,245.6,44.8c15.6,31.2,21.4,325.4,21.4,933.5v888.7l-56.5,56.5C4032,2981.4,3991.1,2987.3,3917,2950.3z"/><path d="M4606.9,2956.1c-107.2-42.9-105.2-33.1-105.2-999.8v-894.5l56.5-56.5c74.1-74.1,144.2-74.1,218.3,2l58.5,56.5l-5.8,906.2c-5.8,877-7.8,908.2-44.8,945.2C4735.6,2962,4661.5,2979.5,4606.9,2956.1z"/><path d="M5271.5,2952.2c-89.6-46.8-87.7-35.1-87.7-990c0-775.6,3.9-914,29.2-949.1c58.5-83.8,216.3-74.1,265.1,15.6c25.3,48.7,33.1,1769.6,7.8,1847.5c-11.7,40.9-101.3,99.4-150.1,99.4C5322.2,2975.6,5292.9,2963.9,5271.5,2952.2z"/><path d="M5943.8,2950.3c-95.5-48.7-97.4-60.4-97.4-988.1c0-654.8,5.8-878.9,25.3-916c52.6-105.2,183.2-122.8,267-39c37,37,39,68.2,39,951c-1.9,958.8,0,945.2-91.6,993.9C6033.5,2981.4,6004.3,2981.4,5943.8,2950.3z"/><path d="M6633.7,2956.1c-107.2-42.9-105.2-33.1-105.2-999.8v-894.5l56.5-56.5c35.1-33.1,77.9-56.5,109.1-56.5c31.2,0,74.1,23.4,109.1,56.5l56.5,56.5v898.4v896.5l-42.9,48.7C6766.3,2962,6694.1,2981.4,6633.7,2956.1z"/><path d="M8759.9,239.4c-202.7-89.6-261.2-356.6-115-518.4c85.8-95.5,159.8-124.7,282.6-113c109.2,11.7,179.3,54.6,247.5,154c62.4,89.6,54.6,268.9-13.6,366.4C9077.6,247.2,8890.5,297.9,8759.9,239.4z"/><path d="M6924.1-1471.7c-58.5-66.3-66.3-107.2-37-179.3c33.1-77.9,122.8-118.9,200.7-87.7c70.1,25.4,101.3,74.1,103.3,150.1C7191.1-1452.2,7013.8-1374.2,6924.1-1471.7z"/><path d="M7623.7-1442.4c-42.9-17.5-85.8-122.8-72.1-181.2c29.2-128.6,189-171.5,274.8-70.2c60.4,70.2,60.4,155.9-1.9,216.3C7779.7-1430.7,7690-1415.2,7623.7-1442.4z"/><path d="M8272.7-1477.5c-83.8-81.9-50.7-222.2,60.4-265c68.2-25.4,177.4,23.4,204.6,93.5C8600.1-1485.3,8395.5-1352.8,8272.7-1477.5z"/><path d="M8956.8-1469.7c-54.6-42.9-70.2-142.3-31.2-212.4c27.3-52.6,124.7-79.9,194.9-54.6c70.1,23.4,97.4,68.2,97.4,159.8c0,79.9-72.1,148.1-155.9,148.1C9032.8-1428.8,8986-1446.3,8956.8-1469.7z"/><path d="M6963.1-2120.6c-97.4-40.9-107.2-105.2-99.4-695.7c5.8-518.4,5.8-518.4,52.6-569.1l46.8-50.7h1085.5h1085.5l40.9,44.8c42.9,44.8,42.9,56.5,42.9,615.8c0,333.2-7.8,584.7-19.5,606.1c-39,74.1-111.1,78-1157.6,78C7220.3-2093.3,7013.8-2097.2,6963.1-2120.6z M8902.2-2767.7l3.9-335.2l-101.3-9.7c-56.5-5.8-440.4-9.7-853.6-5.8l-750.3,3.9L7195-2793c-2,175.4,0,331.3,3.9,345c7.8,21.4,177.3,25.3,853.6,21.4l843.8-5.8L8902.2-2767.7z"/><path d="M4254.2-2286.3c-23.4-9.7-50.7-35.1-62.4-56.5c-13.7-25.3-21.4-241.7-21.4-606.1V-3516l48.7-46.8c83.8-85.8,206.6-56.5,255.3,60.4l27.3,66.3h502.8h502.8l23.4-64.3c42.9-118.9,169.6-144.2,259.2-54.6l56.5,56.5v559.3v559.3l-56.5,56.5c-35.1,33.1-78,56.5-109.2,56.5c-56.5,0-165.7-95.5-165.7-144.2c0-27.3-58.5-31.2-506.7-31.2h-506.7l-27.3,68.2C4435.4-2282.4,4349.7-2247.3,4254.2-2286.3z M5511.2-2943.1l-5.8-171.5h-506.7h-506.7l-5.8,171.5l-5.8,169.6h518.4h518.4L5511.2-2943.1z"/><path d="M1763.6-1787.4c-241.7-60.4-456-231.9-555.4-446.3c-200.7-432.6-37-910.1,385.9-1118.7c144.2-72.1,154-74,364.4-74c210.5,0,220.2,1.9,364.4,74c331.3,163.7,522.3,518.4,465.8,869.2C2708.8-1992,2237.1-1670.5,1763.6-1787.4z M2128-2122.6c341-115,452.1-551.5,208.5-816.6c-111.1-120.8-218.3-167.6-378.1-167.6c-231.9,0-424.8,142.3-489.2,364.4C1354.3-2346.7,1734.3-1988.1,2128-2122.6z"/></g></g>
</svg>