<?xml version="1.0" encoding="utf-8"?>
<!-- Svg Vector Icons : http://www.onlinewebfonts.com/icon -->
<!DOCTYPE svg PUBLIC "-//W3C//DTD SVG 1.1//EN" "http://www.w3.org/Graphics/SVG/1.1/DTD/svg11.dtd">
<svg version="1.1" xmlns="http://www.w3.org/2000/svg" xmlns:xlink="http://www.w3.org/1999/xlink" x="0px" y="0px" viewBox="0 0 1000 1000" enable-background="new 0 0 1000 1000" xml:space="preserve">
<metadata> Svg Vector Icons : http://www.onlinewebfonts.com/icon </metadata>
<g><g transform="translate(0.000000,511.000000) scale(0.100000,-0.100000)"><path d="M1246.3,4367.7c-582-116.8-1039.6-595.4-1129.6-1177.5C101.4,3085,97.5,2242.6,101.4,21.7c5.7-2845,7.7-3032.6,40.2-3139.8c149.3-501.6,532.2-878.8,1028.1-1018.5c116.8-32.5,243.1-34.5,1991.1-34.5s1874.3,1.9,1991.1,34.5c379.1,107.2,723.7,377.2,897.9,702.6l44,86.2l1208.1-5.7c890.3-3.8,1223.4,1.9,1263.6,17.2c111,46,109.1,24.9,109.1,1280.8v1148.7h536.1c342.7,0,551.4,7.6,580.1,21c24.9,11.5,59.4,44,76.6,74.7c28.7,47.9,32.5,174.2,32.5,1340.2v1286.6l-65.1,65.1l-65.1,65.1h-543.7l-541.8,1.9l-38.3,80.4c-30.6,63.2-55.5,86.2-116.8,107.2c-91.9,32.5-160.8,7.7-225.9-80.4l-40.2-55.5l5.7-2477.4l5.7-2477.4h-1030h-1030V123.2c0,2917.8-1.9,3082.4-34.5,3201.1c-114.9,407.8-398.2,750.5-769.6,928.6c-292.9,141.7-157,132.1-2201.7,137.9C1751.7,4392.6,1345.8,4388.8,1246.3,4367.7z M5075.4,3948.4c352.3-116.8,595.4-363.8,702.6-710.3c32.5-109.1,34.5-256.6,34.5-3130.3s-1.9-3021.1-34.5-3130.3c-109.1-352.3-360-603.1-712.2-712.2c-107.2-32.5-222.1-34.5-1905-34.5s-1797.8,1.9-1905,34.5c-352.3,109.1-603.1,359.9-712.2,712.2c-32.5,109.1-34.5,256.6-34.5,3130.3s1.9,3021.1,34.5,3130.3c107.2,350.4,369.5,612.6,702.6,706.5c57.4,15.3,132.1,32.5,162.7,36.4c32.6,3.8,846.2,7.7,1809.2,5.8C4860.9,3984.8,4975.8,3982.9,5075.4,3948.4z M9494.1,515.7l3.8-1020.4h-411.6h-411.6V519.5v1024.3l407.8-3.8l405.9-5.7L9494.1,515.7z"/><path d="M3754.3,3236.2c-300.6-80.4-562.9-323.6-683.5-633.7c-44-114.9-51.7-157-51.7-350.4c0-185.7,7.7-239.3,45.9-335c166.6-426.9,526.5-679.7,972.6-679.7c557.1,0,1007,451.8,1007,1014.7c0,568.6-451.8,1018.5-1016.6,1012.8C3936.2,3264.9,3811.8,3251.5,3754.3,3236.2z M4298.1,2799.7c114.9-55.5,216.3-157,283.4-283.4c36.4-68.9,44-111,44-264.2c0-153.2-7.7-195.3-44-264.2c-67-126.4-168.5-227.8-287.2-285.3c-147.4-72.8-363.8-74.7-515-7.7c-118.7,53.6-260.4,197.2-315.9,323.6c-55.5,124.4-55.5,342.7-1.9,467.2c47.9,103.4,180,254.6,262.3,296.7C3909.4,2880.1,4121.9,2885.9,4298.1,2799.7z"/><path d="M2058-443.5c-467.1-118.7-840.5-453.8-1001.3-896c-185.7-509.3-74.7-1062.6,289.1-1453.1c273.8-292.9,574.4-436.5,972.6-463.3c425-26.8,819.4,134,1125.7,463.3c248.9,266.1,371.4,580.1,373.3,957.3c1.9,631.8-382.9,1160.2-1001.3,1368.9C2640.1-407.1,2251.4-395.7,2058-443.5z M2718.6-866.6c396.3-135.9,664.4-486.3,687.3-901.7c9.6-201-17.2-337-99.6-509.3c-168.5-352.3-518.8-570.5-911.3-570.5c-562.9,0-1014.7,448-1014.7,1007.1c0,256.5,55.5,423.1,208.7,628c137.9,185.7,402.1,348.4,633.7,390.6C2331.8-803.5,2599.9-826.4,2718.6-866.6z"/><path d="M6746.7,3351.1c-128.3-63.2-120.6,124.5-120.6-2829.7c0-2927.3-5.7-2772.3,113-2833.5c72.8-38.3,122.5-38.3,195.3,0c118.7,61.3,113-93.8,113,2833.5c0,2961.8,7.7,2766.5-124.4,2829.7C6844.4,3389.4,6823.3,3389.4,6746.7,3351.1z"/><path d="M7514.5,2493.4l-65.1-65.1V531c0-2063.9-3.8-1977.7,105.3-2027.5c90-40.2,180-28.7,241.2,32.5l55.5,55.5V498.4c0,1435.9-5.7,1918.4-23,1954.8c-26.8,61.3-107.2,105.3-189.5,105.3C7596.8,2558.5,7560.4,2539.3,7514.5,2493.4z"/></g></g>
</svg>