<?xml version="1.0" encoding="utf-8"?>
<!-- Svg Vector Icons : http://www.onlinewebfonts.com/icon -->
<!DOCTYPE svg PUBLIC "-//W3C//DTD SVG 1.1//EN" "http://www.w3.org/Graphics/SVG/1.1/DTD/svg11.dtd">
<svg version="1.1" xmlns="http://www.w3.org/2000/svg" xmlns:xlink="http://www.w3.org/1999/xlink" x="0px" y="0px" viewBox="0 0 1000 1000" enable-background="new 0 0 1000 1000" xml:space="preserve">
<metadata> Svg Vector Icons : http://www.onlinewebfonts.com/icon </metadata>
<g><g transform="translate(0.000000,511.000000) scale(0.100000,-0.100000)"><path d="M4847.5,3865c-138-54.7-280.3-166.4-350.4-269.4c-32.8-50.4-140.1-330.7-238.7-619.7l-177.4-527.7l-519-6.6l-516.8-4.4v313.1c0,308.8,0,315.3-56.9,367.9l-56.9,52.6l-659.1,6.6c-444.5,4.4-689.8,0-744.5-17.5c-122.6-35-146.7-109.5-146.7-448.9v-273.7l-113.9-2.2c-63.5-2.2-138,0-164.2,2.2c-192.7,15.3-519-118.3-696.4-286.9c-133.6-127-203.6-236.5-265-413.9C102.2,1622.6,100,1519.7,100-321.9v-1938l52.6-148.9c102.9-300,367.9-556.2,672.3-650.4c138-41.6,199.3-43.8,1213.2-43.8c589.1,0,1086.2,6.6,1105.9,13.1c54.7,21.9,102.9,135.8,87.6,205.8c-6.6,32.8-32.8,78.8-59.1,100.7c-41.6,39.4-111.7,41.6-1143.1,52.6c-1086.2,10.9-1097.1,10.9-1189.1,61.3c-144.5,76.6-240.9,173-306.6,306.6L472.3-2238v1916.1c0,1907.3,0,1916.1,46,2016.8c59.1,127,186.1,254,313.1,313.1c98.5,46,127,46,1758.4,56.9c1635.8,10.9,1657.7,10.9,1719,56.9c52.6,39.4,89.8,131.4,258.4,624.1c109.5,319.7,214.6,608.8,236.5,641.6c21.9,32.8,70.1,78.8,109.5,100.7c67.9,41.6,118.3,43.8,1186.9,43.8c1046.7,0,1123.4-2.2,1193.4-41.6c41.6-21.9,92-63.5,113.9-92c35-46,335-827.7,442.4-1151.8c19.7-61.3,52.5-124.8,72.3-142.3c26.3-21.9,173-30.7,584.7-39.4c501.5-11,558.4-15.3,650.4-56.9c127-59.1,254-186.1,313.2-313.1c46-100.7,46-109.5,46-2016.8V-2238l-61.3-124.8c-65.7-135.8-162.1-232.1-306.6-306.6c-74.5-39.4-142.3-50.4-361.3-61.3c-262.8-11-273.7-13.2-324.1-72.3c-70.1-81-67.9-177.4,4.4-249.6c54.7-54.7,56.9-54.7,365.7-46c293.4,6.6,319.7,11,457.7,76.6c278.1,131.4,479.6,376.6,562.8,683.2c46,170.8,48.2,199.3,46,1988.4c-2.2,1116.8-10.9,1867.9-24.1,1955.5c-63.5,398.5-400.8,733.6-816.8,812.4c-67.9,10.9-146.7,19.7-173,19.7c-26.3-2.2-197.1-4.4-378.8-2.2l-330.7,2.2l-181.7,499.3c-100.7,273.7-201.5,534.3-223.4,580.3c-56.9,113.9-190.5,243.1-328.5,315.3l-116.1,61.3l-1193.5,4.4C5051.2,3902.2,4930.7,3900,4847.5,3865z M2690.6,2619l6.6-181.7h-473h-470.8V2608c0,94.2,6.6,179.6,15.3,188.3c8.8,6.6,216.8,11,464.2,8.8l451.1-6.6L2690.6,2619z"/><path d="M1416.1,1556.9c-30.7-43.8-35-251.8-35-1802.2c0-1550.4,4.4-1758.4,35-1802.2c39.4-57,81-61.3,127-13.1c30.7,30.7,35,225.5,35,1815.4c0,1589.8-4.4,1784.7-35,1815.3C1497.1,1618.2,1455.5,1613.8,1416.1,1556.9z"/><path d="M1974.5,1574.4c-17.5-21.9-21.9-516.8-19.7-1830.7c6.6-1688.4,8.8-1804.4,43.8-1826.3c28.5-17.5,50.4-17.5,76.6,0c37.2,21.9,39.4,138,46,1826.3c2.2,1313.9-2.2,1808.8-19.7,1830.7c-13.1,17.5-41.6,30.7-63.5,30.7C2016.1,1605.1,1987.6,1591.9,1974.5,1574.4z"/><path d="M5804.5,1276.6C4957,1158.4,4247.5,654.7,3877.4-92c-505.9-1020.5-262.8-2235.8,600-2986.9c321.9-278.1,700.8-466.4,1140.9-562.8c232.1-50.4,744.6-50.4,970.1,0c354.7,78.8,632.9,197.1,913.2,385.4c543.1,367.9,926.3,952.6,1051.1,1600.8c46,238.7,46,676.7,0,915.3C8364.4,243,7608.9,1020.4,6632.2,1235C6408.9,1283.2,6003.7,1305.1,5804.5,1276.6z M6612.5,860.6C7379,674.4,7983.3,56.9,8171.7-731.4c65.7-269.3,65.7-665.7,0-932.9c-227.7-937.3-994.2-1585.4-1953.3-1648.9c-827.8-57-1642.4,422.6-2012.4,1184.7c-166.4,339.4-205.8,523.3-205.8,930.7c0,407.3,39.4,591.2,205.8,930.7c188.3,385.4,488.3,705.1,865,919.7c183.9,102.9,516.8,221.2,722.6,251.8C5990.6,932.8,6400.1,913.1,6612.5,860.6z"/><path d="M5892.1,396.3c-348.2-48.2-654.8-208-919.7-475.2c-208-208-328.5-413.9-418.3-702.9c-43.8-135.8-52.6-212.4-50.4-438c0-278.1,17.5-374.5,100.7-591.3c85.4-216.8,197.1-381,387.6-569.4c321.9-319.7,681-468.6,1130-468.6c291.2,0,479.6,43.8,722.6,162.1c569.4,278.1,911,829.9,911,1467.2c0,827.7-589.1,1502.2-1414.6,1620.5C6163.6,424.8,6087,424.8,5892.1,396.3z M6588.4,153.2c812.4-286.9,1208.8-1186.9,867.2-1962.1c-332.9-753.3-1232.9-1070.8-1990.6-702.9c-113.9,56.9-203.7,124.8-350.4,273.7c-221.2,219-332.9,409.5-392,667.9c-43.8,181.7-43.8,519-2.2,696.4c118.2,497.1,534.3,919.7,1044.5,1055.5C5997.2,245.2,6367.3,232.1,6588.4,153.2z"/></g></g>
</svg>