<?xml version="1.0" encoding="utf-8"?>
<!-- Svg Vector Icons : http://www.onlinewebfonts.com/icon -->
<!DOCTYPE svg PUBLIC "-//W3C//DTD SVG 1.1//EN" "http://www.w3.org/Graphics/SVG/1.1/DTD/svg11.dtd">
<svg version="1.1" xmlns="http://www.w3.org/2000/svg" xmlns:xlink="http://www.w3.org/1999/xlink" x="0px" y="0px" viewBox="0 0 1000 1000" enable-background="new 0 0 1000 1000" xml:space="preserve">
<metadata> Svg Vector Icons : http://www.onlinewebfonts.com/icon </metadata>
<g><path d="M220.6,153l-130.2,4.4l-14.5,87.4L37.3,401.5h925.5l-34.9-234.7l-61.1-4.4L220.6,153z"/><path d="M872.2,128.8h-90.1V39.7c0-16.4-13.3-29.7-29.7-29.7c-16.4,0-29.7,13.3-29.7,29.7v89.1H262.4V39.7c0-16.4-13.3-29.7-29.7-29.7C216.3,10,203,23.3,203,39.7v89.1h-75.3c-56.8,0-102.9,46.1-102.9,102.9v655.4c0,56.8,46.1,102.9,102.9,102.9h744.5c56.8,0,102.9-46.1,102.9-102.9V231.7C975.2,174.9,929.1,128.8,872.2,128.8z M127.8,188.2H203v74.2c0,16.4,13.3,29.7,29.7,29.7c16.4,0,29.7-13.3,29.7-29.7v-74.2h460.3v74.2c0,16.4,13.3,29.7,29.7,29.7c16.4,0,29.7-13.3,29.7-29.7v-74.2h90.1c24,0,43.5,19.5,43.5,43.5v149.5H84.2V231.7C84.2,207.7,103.7,188.2,127.8,188.2z M872.2,930.6H127.8c-24,0-43.5-19.5-43.5-43.5V410.9h831.5v476.2C915.8,911.1,896.3,930.6,872.2,930.6z"/><path d="M854.8,806.5c-8.2,0-16.4,6.6-16.4,14.8c0,32.5-10.4,35-25.1,35h-93.7c-8.2,0-14.8,6.6-14.8,14.8c0,8.2,6.6,14.8,14.8,14.8h93.7c34.1,0,53.9-19.1,56.1-56.8c0.1-0.8,1.7-1.7,1.7-2.6v-5.3C871.2,813.1,863,806.5,854.8,806.5z"/><path d="M854.5,773.4c3.9,0,7.7-1.6,10.5-4.3c2.7-2.8,4.3-6.7,4.3-10.5c0-3.9-1.6-7.7-4.3-10.5c-5.6-5.5-15.6-5.5-21.1,0c-2.7,2.8-4.3,6.7-4.3,10.5c0,4,1.6,7.7,4.3,10.5C846.8,771.7,850.5,773.4,854.5,773.4z"/><path d="M244.5,514.9h-14.8c-8.2,0-14.8,6.6-14.8,14.8c0,8.2,6.6,14.9,14.8,14.9h14.8c8.2,0,14.8-6.6,14.8-14.9C259.4,521.5,252.7,514.9,244.5,514.9z"/><path d="M348.5,514.9h-14.8c-8.2,0-14.9,6.6-14.9,14.8c0,8.2,6.6,14.9,14.9,14.9h14.8c8.2,0,14.8-6.6,14.8-14.9C363.3,521.5,356.7,514.9,348.5,514.9z"/><path d="M452.4,514.9h-14.8c-8.2,0-14.8,6.6-14.8,14.8c0,8.2,6.6,14.9,14.8,14.9h14.8c8.2,0,14.8-6.6,14.8-14.9C467.3,521.5,460.6,514.9,452.4,514.9z"/><path d="M541.5,514.9h-14.8c-8.2,0-14.8,6.6-14.8,14.8c0,8.2,6.6,14.9,14.8,14.9h14.8c8.2,0,14.8-6.6,14.8-14.9C556.3,521.5,549.7,514.9,541.5,514.9z"/><path d="M645.4,514.9h-14.8c-8.2,0-14.8,6.6-14.8,14.8c0,8.2,6.6,14.9,14.8,14.9h14.8c8.2,0,14.8-6.6,14.8-14.9C660.3,521.5,653.6,514.9,645.4,514.9z"/><path d="M734.5,544.5h14.8c8.2,0,14.8-6.6,14.8-14.9c0-8.2-6.6-14.8-14.8-14.8h-14.8c-8.2,0-14.8,6.6-14.8,14.8C719.7,537.9,726.3,544.5,734.5,544.5z"/><path d="M244.5,603.9h-14.8c-8.2,0-14.8,6.6-14.8,14.8c0,8.2,6.6,14.9,14.8,14.9h14.8c8.2,0,14.8-6.6,14.8-14.9C259.4,610.6,252.7,603.9,244.5,603.9z"/><path d="M348.5,603.9h-14.8c-8.2,0-14.9,6.6-14.9,14.8c0,8.2,6.6,14.9,14.9,14.9h14.8c8.2,0,14.8-6.6,14.8-14.9C363.3,610.6,356.7,603.9,348.5,603.9z"/><path d="M452.4,603.9h-14.8c-8.2,0-14.8,6.6-14.8,14.8c0,8.2,6.6,14.9,14.8,14.9h14.8c8.2,0,14.8-6.6,14.8-14.9C467.3,610.6,460.6,603.9,452.4,603.9z"/><path d="M541.5,603.9h-14.8c-8.2,0-14.8,6.6-14.8,14.8c0,8.2,6.6,14.9,14.8,14.9h14.8c8.2,0,14.8-6.6,14.8-14.9C556.3,610.6,549.7,603.9,541.5,603.9z"/><path d="M645.4,603.9h-14.8c-8.2,0-14.8,6.6-14.8,14.8c0,8.2,6.6,14.9,14.8,14.9h14.8c8.2,0,14.8-6.6,14.8-14.9C660.3,610.6,653.6,603.9,645.4,603.9z"/><path d="M734.5,633.6h14.8c8.2,0,14.8-6.6,14.8-14.9c0-8.2-6.6-14.8-14.8-14.8h-14.8c-8.2,0-14.8,6.6-14.8,14.8C719.7,627,726.3,633.6,734.5,633.6z"/><path d="M244.5,782.1h-14.8c-8.2,0-14.8,6.6-14.8,14.8s6.6,14.9,14.8,14.9h14.8c8.2,0,14.8-6.6,14.8-14.9S252.7,782.1,244.5,782.1z"/><path d="M348.5,782.1h-14.8c-8.2,0-14.9,6.6-14.9,14.8s6.6,14.9,14.9,14.9h14.8c8.2,0,14.8-6.6,14.8-14.9S356.7,782.1,348.5,782.1z"/><path d="M452.4,782.1h-14.8c-8.2,0-14.8,6.6-14.8,14.8s6.6,14.9,14.8,14.9h14.8c8.2,0,14.8-6.6,14.8-14.9S460.6,782.1,452.4,782.1z"/><path d="M541.5,782.1h-14.8c-8.2,0-14.8,6.6-14.8,14.8s6.6,14.9,14.8,14.9h14.8c8.2,0,14.8-6.6,14.8-14.9S549.7,782.1,541.5,782.1z"/><path d="M244.5,693h-14.8c-8.2,0-14.8,6.6-14.8,14.8c0,8.2,6.6,14.9,14.8,14.9h14.8c8.2,0,14.8-6.6,14.8-14.9C259.4,699.7,252.7,693,244.5,693z"/><path d="M348.5,693h-14.8c-8.2,0-14.9,6.6-14.9,14.8c0,8.2,6.6,14.9,14.9,14.9h14.8c8.2,0,14.8-6.6,14.8-14.9C363.3,699.7,356.7,693,348.5,693z"/><path d="M452.4,693h-14.8c-8.2,0-14.8,6.6-14.8,14.8c0,8.2,6.6,14.9,14.8,14.9h14.8c8.2,0,14.8-6.6,14.8-14.9C467.3,699.7,460.6,693,452.4,693z"/><path d="M541.5,693h-14.8c-8.2,0-14.8,6.6-14.8,14.8c0,8.2,6.6,14.9,14.8,14.9h14.8c8.2,0,14.8-6.6,14.8-14.9C556.3,699.7,549.7,693,541.5,693z"/><path d="M645.4,693h-14.8c-8.2,0-14.8,6.6-14.8,14.8c0,8.2,6.6,14.9,14.8,14.9h14.8c8.2,0,14.8-6.6,14.8-14.9C660.3,699.7,653.6,693,645.4,693z"/><path d="M734.5,722.7h14.8c8.2,0,14.8-6.6,14.8-14.8c0-8.2-6.6-14.8-14.8-14.8h-14.8c-8.2,0-14.8,6.6-14.8,14.8C719.7,716.1,726.3,722.7,734.5,722.7z"/></g>
</svg>