<?xml version="1.0" encoding="utf-8"?>
<!-- Svg Vector Icons : http://www.onlinewebfonts.com/icon -->
<!DOCTYPE svg PUBLIC "-//W3C//DTD SVG 1.1//EN" "http://www.w3.org/Graphics/SVG/1.1/DTD/svg11.dtd">
<svg version="1.1" xmlns="http://www.w3.org/2000/svg" xmlns:xlink="http://www.w3.org/1999/xlink" x="0px" y="0px" viewBox="0 0 1000 1000" enable-background="new 0 0 1000 1000" xml:space="preserve">
<metadata> Svg Vector Icons : http://www.onlinewebfonts.com/icon </metadata>
<g><path d="M150.7,173.9c0,30,24.4,54.4,54.4,54.4s54.4-24.4,54.4-54.4v-108c0-30-24.4-54.4-54.4-54.4s-54.4,24.4-54.4,54.4V173.9z"/><path d="M740.4,173.9c0,30,24.4,54.4,54.4,54.4c30,0,54.4-24.4,54.4-54.4v-108c0-30-24.4-54.4-54.4-54.4c-30,0-54.4,24.4-54.4,54.4V173.9z"/><path d="M990,151.4V957c0,17.4-14.1,31.6-31.6,31.6H41.6C24.1,988.5,10,974.4,10,957V151.4c0-17.4,14.1-31.6,31.6-31.6h86.9v54c0,42.3,34.4,76.7,76.7,76.7s76.7-34.4,76.7-76.7v-54h436.3v54c0,42.3,34.4,76.7,76.7,76.7c42.3,0,76.7-34.4,76.7-76.7v-54h87C975.9,119.9,990,134,990,151.4z M899.6,336.8H100.4v564.7h799.2V336.8z"/><path d="M153.2,378.2h116.6v116.6H153.2V378.2z"/><path d="M346.3,378.2H463v116.6H346.3V378.2z"/><path d="M539.4,378.2h116.6v116.6H539.4V378.2z"/><path d="M732.6,378.2h116.6v116.6H732.6V378.2z"/><path d="M153.2,554.2h116.6v116.6H153.2V554.2z"/><path d="M346.3,554.2H463v116.6H346.3V554.2z"/><path d="M539.4,554.2h116.6v116.6H539.4V554.2z"/><path d="M732.6,554.2h116.6v116.6H732.6V554.2z"/><path d="M153.2,730.2h116.6v116.6H153.2V730.2z"/><path d="M346.3,730.2H463v116.6H346.3V730.2z"/><path d="M539.4,730.2h116.6v116.6H539.4V730.2z"/><path d="M732.6,730.2h116.6v116.6H732.6V730.2z"/></g>
</svg>