<?xml version="1.0" encoding="utf-8"?>
<!-- Svg Vector Icons : http://www.onlinewebfonts.com/icon -->
<!DOCTYPE svg PUBLIC "-//W3C//DTD SVG 1.1//EN" "http://www.w3.org/Graphics/SVG/1.1/DTD/svg11.dtd">
<svg version="1.1" xmlns="http://www.w3.org/2000/svg" xmlns:xlink="http://www.w3.org/1999/xlink" x="0px" y="0px" viewBox="0 0 1000 1000" enable-background="new 0 0 1000 1000" xml:space="preserve">
<metadata> Svg Vector Icons : http://www.onlinewebfonts.com/icon </metadata>
<g><path d="M97.4,988.5h805.1c48.2,0,87.5-39.2,87.5-87.4v-718c0-48.2-39.3-87.4-87.5-87.4H796.1V71.3c0-1.5-0.1-2.9-0.4-4.3c-2.2-31-28.1-55.5-59.6-55.5c-30.1,0-55.6,22.4-59.5,55v29.1H323.2l0-32c-3.7-29.8-29.2-52.2-59.3-52.2c-31.5,0-57.4,24.5-59.6,55.5c-0.3,1.4-0.4,2.9-0.4,4.4v24.3H97.4c-48.2,0-87.4,39.3-87.4,87.4v718C10,949.3,49.2,988.5,97.4,988.5z M736.1,56.6c8.1,0,14.7,6.6,14.7,14.7c0,1.2,0.1,2.3,0.3,3.4l0.2,135.9c-0.9,7.3-7.1,12.8-14.5,12.8c-8.1,0-14.7-6.6-14.7-14.7c0-1.1-0.1-2.2-0.3-3.3l-0.2-136C722.5,62,728.8,56.6,736.1,56.6z M248.9,74.8c0.2-1.1,0.3-2.3,0.3-3.5c0-8.1,6.6-14.7,14.7-14.7c7.4,0,13.7,5.5,14.4,9.9v138.8c-0.2,1.1-0.3,2.2-0.3,3.3c0,8.1-6.6,14.7-14.7,14.7c-7.4,0-13.6-5.5-14.3-10L248.9,74.8L248.9,74.8z M55.1,183.1c0-23.3,19-42.3,42.3-42.3h106.5l0.1,75.5c3.7,29.8,29.2,52.2,59.2,52.2c31.6,0,57.5-24.6,59.6-55.6c0.3-1.4,0.4-2.7,0.4-4.2l-0.1-67.9h353.5v67.9c0,1.4,0.1,2.8,0.4,4.1c2.2,31.1,28.1,55.7,59.7,55.7c30.1,0,55.6-22.5,59.4-55v-72.7h106.3c23.4,0,42.4,19,42.4,42.3v143.4H55.1V183.1z M55.1,371.6h889.9v529.5c0,23.4-19,42.3-42.4,42.3H97.4c-23.3,0-42.3-19-42.3-42.3V371.6z"/><path d="M460.7,580.6c4,0,7.7-0.4,11.2-1.1l0,0c0.6-0.1,1.2-0.3,1.8-0.4c0.3-0.1,0.5-0.1,0.8-0.2V781c0,33.1,27,60.1,60.1,60.1c33.1,0,60.1-27,60.1-60.1V496.3c0-25.3-20.6-45.9-45.9-45.9h-23.8c-5.5,0-10.8,0.8-16.7,2.6l-65.9,19.6c-22.3,7.7-37.3,28.8-37.3,52.5c0,4.8,0.6,9.5,1.8,13.7C413.2,563.5,435.3,580.6,460.7,580.6z M459,514.8l66.1-19.3l24.6,0.8V781c0,8.3-6.8,15.1-15.1,15.1c-8.3,0-15.1-6.8-15.1-15.1V570.4c0.1-0.7,0.1-1.4,0.1-1.9c0-0.8,0-1.7-0.2-2.6c-1.4-20.9-18-36.4-41.6-34.1c-1,0.1-4.1,0.8-5.2,1.1l-9.4,2.4c-1,0.1-2,0.2-2.6,0.4c-4.8,0-8.9-3.2-10.4-10.4C450.3,520.1,453.8,516.6,459,514.8z"/></g>
</svg>