<?xml version="1.0" encoding="utf-8"?>
<!-- Svg Vector Icons : http://www.onlinewebfonts.com/icon -->
<!DOCTYPE svg PUBLIC "-//W3C//DTD SVG 1.1//EN" "http://www.w3.org/Graphics/SVG/1.1/DTD/svg11.dtd">
<svg version="1.1" xmlns="http://www.w3.org/2000/svg" xmlns:xlink="http://www.w3.org/1999/xlink" x="0px" y="0px" viewBox="0 0 1000 1000" enable-background="new 0 0 1000 1000" xml:space="preserve">
<metadata> Svg Vector Icons : http://www.onlinewebfonts.com/icon </metadata>
<g><path d="M527.4,448.3c-48.7,0-30.4,60.9-91.3,73l-18.3,6.1c-30.4,6.1-36.5,6.1-36.5,30.4c0,24.3,12.2,30.4,24.3,30.4h73v200.9c0,30.4,6.1,48.7,36.5,48.7c30.4,0,36.5-24.3,36.5-48.7V484.8C551.7,454.3,539.6,448.3,527.4,448.3z"/><path d="M290,247.4h12.2c18.3,0,30.4-12.2,30.4-30.4V70.9c0-18.3-12.2-30.4-30.4-30.4H290c-18.3,0-30.4,12.2-30.4,30.4V223C259.6,235.2,271.7,247.4,290,247.4z"/><path d="M685.7,247.4h12.2c18.3,0,30.4-12.2,30.4-30.4V70.9c0-18.3-12.2-30.4-30.4-30.4h-12.2c-18.3,0-30.4,12.2-30.4,30.4V223C655.2,235.2,673.5,247.4,685.7,247.4z"/><path d="M856.1,113.5H777v54.8h79.1c36.5,0,67,30.4,67,67v60.9H64.8v-60.9c0-36.5,30.4-67,67-67h79.1v-54.8h-73c-73,0-127.8,60.9-127.8,127.8v590.4c0,67,54.8,127.8,127.8,127.8h724.3c67,0,127.8-54.8,127.8-127.8V241.3C983.9,174.3,929.1,113.5,856.1,113.5z M856.1,898.7H137.8c-36.5,0-67-30.4-67-67V357h858.3v468.7C929.1,868.3,898.7,898.7,856.1,898.7z"/><path d="M375.2,113.5h243.5v54.8H375.2V113.5z"/></g>
</svg>