<?xml version="1.0" encoding="utf-8"?>
<!-- Svg Vector Icons : http://www.onlinewebfonts.com/icon -->
<!DOCTYPE svg PUBLIC "-//W3C//DTD SVG 1.1//EN" "http://www.w3.org/Graphics/SVG/1.1/DTD/svg11.dtd">
<svg version="1.1" xmlns="http://www.w3.org/2000/svg" xmlns:xlink="http://www.w3.org/1999/xlink" x="0px" y="0px" viewBox="0 0 1000 1000" enable-background="new 0 0 1000 1000" xml:space="preserve">
<metadata> Svg Vector Icons : http://www.onlinewebfonts.com/icon </metadata>
<g><path d="M805.8,223.8l57.7-57.8l38.5,38.5l-57.7,57.7L805.8,223.8z M527.2,118.9h-54.4V64.4h-54.4V10h163.3v54.4h-54.4V118.9z M935.6,554.4C935.6,795,740.6,990,500,990C259.4,990,64.4,795,64.4,554.4c0-240.6,195-435.6,435.6-435.6C740.6,118.9,935.6,313.9,935.6,554.4z M118.9,554.4c0,210.5,170.6,381.1,381.1,381.1s381.1-170.6,381.1-381.1c0-210.5-170.6-381.1-381.1-381.1S118.9,344,118.9,554.4z M527.2,282.2v225.3c16.2,9.4,27.2,26.8,27.2,46.9c0,30.1-24.4,54.4-54.4,54.4s-54.4-24.4-54.4-54.4c0-20.1,11-37.5,27.2-46.9V282.2H527.2z"/></g>
</svg>