<?xml version="1.0" encoding="utf-8"?>
<!-- Svg Vector Icons : http://www.onlinewebfonts.com/icon -->
<!DOCTYPE svg PUBLIC "-//W3C//DTD SVG 1.1//EN" "http://www.w3.org/Graphics/SVG/1.1/DTD/svg11.dtd">
<svg version="1.1" xmlns="http://www.w3.org/2000/svg" xmlns:xlink="http://www.w3.org/1999/xlink" x="0px" y="0px" viewBox="0 0 1000 1000" enable-background="new 0 0 1000 1000" xml:space="preserve">
<metadata> Svg Vector Icons : http://www.onlinewebfonts.com/icon </metadata>
<g><g transform="translate(0.000000,511.000000) scale(0.100000,-0.100000)"><path d="M3765.2,4970.5c-215.4-77.1-405.1-274.7-470.3-484.1c-15.8-53.4-37.5-243.1-47.4-420.9c-17.8-296.4-71.2-640.3-116.6-762.8c-13.8-33.6-47.4-57.3-118.6-81c-235.1-77.1-498-306.3-620.5-539.5c-152.2-290.5-142.3-108.7-142.3-2572.9c0-2082.8,2-2209.3,35.6-2321.9c112.6-365.6,363.6-644.2,705.5-780.6l128.4-53.3l45.4-175.9c41.5-164,53.4-256.9,100.8-824c13.8-168,29.6-239.1,71.2-322.1c69.2-140.3,215.4-286.5,359.7-357.7l114.6-55.3l1080.9-5.9c1031.5-5.9,1084.9-4,1191.6,33.6c152.2,53.3,290.5,162,381.4,298.4c98.8,146.2,116.6,229.2,142.3,614.6c17.8,290.5,71.1,636.3,114.6,750.9c15.8,39.5,47.4,61.3,120.5,87c235.2,77.1,500,306.3,620.5,539.5c148.2,282.6,140.3,195.6,148.2,1717.2l5.9,1365.5l47.4,11.9c83,21.7,90.9,65.2,85,509.8l-5.9,420.9l-61.3,39.5l-61.3,39.5l-11.9,345.8c-9.9,381.4-29.6,472.3-146.2,695.6c-120.5,233.2-385.3,462.4-620.5,539.5c-73.1,25.7-104.7,47.4-120.5,86.9c-43.5,114.6-96.8,460.4-114.6,750.9c-25.7,385.3-43.5,468.3-142.3,614.6c-90.9,136.3-227.2,245-381.4,298.4c-100.8,35.6-169.9,37.5-1160,37.5C3939.1,5008,3864,5006,3765.2,4970.5z M6025.9,4666.2c118.6-55.3,213.4-164,241.1-276.7c11.9-43.5,27.7-193.7,33.6-332c9.9-219.3,33.6-416.9,81-691.6l13.8-75.1H4917.3H3441.1l11.9,45.4c37.6,132.4,88.9,509.8,100.8,725.2c15.8,332,37.5,405.1,146.2,513.8c51.4,49.4,122.5,100.8,160.1,112.6c47.4,13.8,395.2,21.7,1067.1,23.7l997.9,2L6025.9,4666.2z M6656.2,2964.7c251-67.2,454.5-237.1,569.1-478.2l63.2-134.4V109.3v-2242.9l-63.2-134.4c-114.6-241.1-318.1-411-569.1-478.2c-175.9-45.4-3282.3-45.4-3458.2,0c-251,67.2-454.5,237.1-569.1,478.2l-63.2,134.4V109.3v2242.9l63.2,134.4c112.6,237.1,316.2,411,561.2,476.2C3354.2,3006.2,6486.3,3008.2,6656.2,2964.7z M6409.2-3078.1c0-4-17.8-85-37.5-181.8c-41.5-195.6-81-543.4-81-727.2c0-229.2-85-377.5-264.8-460.4l-100.8-47.4h-997.9h-997.9l-100.8,47.4c-118.6,55.3-213.4,164-241.1,276.7c-11.9,43.5-27.7,193.7-33.6,332c-9.9,219.3-33.6,417-81,693.6l-13.8,73.1h1476.1C5745.3-3072.2,6409.2-3074.2,6409.2-3078.1z"/><path d="M4873.8,2229.6c-23.7-3.9-67.2-35.6-94.8-67.2l-49.4-61.3V907.6V-285.9H5522c503.9,0,804.3,7.9,830,19.8c19.8,11.9,51.4,49.4,69.2,83c43.5,83,21.8,177.9-53.3,241.1l-61.3,51.4h-590.9h-590.8v994c0,1100.7,5.9,1055.2-130.4,1112.5c-35.6,15.8-69.2,25.7-71.1,25.7C4919.3,2239.5,4897.5,2233.6,4873.8,2229.6z"/><path d="M3486.6,57.9c-75.1-63.2-96.8-158.1-53.4-241.1c39.5-77.1,87-102.8,183.8-102.8c185.7,0,264.8,225.3,120.5,345.8C3660.5,125.1,3565.6,125.1,3486.6,57.9z"/><path d="M4838.2-1633.6c-67.2-35.6-108.7-100.8-108.7-173.9c0-88.9,45.4-154.1,130.4-189.7c126.5-53.4,264.8,47.4,264.8,189.7C5122.8-1663.3,4962.7-1564.5,4838.2-1633.6z"/></g></g>
</svg>