<?xml version="1.0" encoding="utf-8"?>
<!-- Svg Vector Icons : http://www.onlinewebfonts.com/icon -->
<!DOCTYPE svg PUBLIC "-//W3C//DTD SVG 1.1//EN" "http://www.w3.org/Graphics/SVG/1.1/DTD/svg11.dtd">
<svg version="1.1" xmlns="http://www.w3.org/2000/svg" xmlns:xlink="http://www.w3.org/1999/xlink" x="0px" y="0px" viewBox="0 0 1000 1000" enable-background="new 0 0 1000 1000" xml:space="preserve">
<metadata> Svg Vector Icons : http://www.onlinewebfonts.com/icon </metadata>
<g><g><path d="M773.1,773.1H500v-81.7h273.1V773.1z M880.3,880.3V119.7L119.7,880.3H880.3z M145.3,255v81.7H255v109.7h81.7V336.7h109.7V255H336.7V145.3H255V255H145.3z M880.3,10c28.9,0,54.4,11.1,76.6,33.2c22.1,22.1,33.2,47.6,33.2,76.6v760.5c0,28.9-11.1,54.4-33.2,76.6c-22.1,22.1-47.6,33.2-76.6,33.2H119.7c-28.9,0-54.4-11.1-76.6-33.2C21.1,934.7,10,909.2,10,880.3V119.7c0-28.9,11.1-54.4,33.2-76.6C65.3,21.1,90.8,10,119.7,10H880.3z"/></g></g>
</svg>