<?xml version="1.0" encoding="utf-8"?>
<!-- Svg Vector Icons : http://www.onlinewebfonts.com/icon -->
<!DOCTYPE svg PUBLIC "-//W3C//DTD SVG 1.1//EN" "http://www.w3.org/Graphics/SVG/1.1/DTD/svg11.dtd">
<svg version="1.1" xmlns="http://www.w3.org/2000/svg" xmlns:xlink="http://www.w3.org/1999/xlink" x="0px" y="0px" viewBox="0 0 1000 1000" enable-background="new 0 0 1000 1000" xml:space="preserve">
<metadata> Svg Vector Icons : http://www.onlinewebfonts.com/icon </metadata>
<g><path d="M436.1,393.5h42.6c25.6,0,42.6,21.3,42.6,42.6h42.6c0-46.9-38.3-85.2-85.2-85.2h-42.6c-46.9,0-85.2,38.3-85.2,85.2s38.3,85.2,85.2,85.2h42.6c25.6,0,42.6,17,42.6,42.6s-17,42.6-42.6,42.6h-42.6c-25.6,0-42.6-21.3-42.6-42.6l0,0h-42.6l0,0c0,46.9,38.3,85.2,85.2,85.2h42.6c46.9,0,85.2-38.3,85.2-85.2s-38.3-85.2-85.2-85.2h-42.6c-25.6,0-42.6-17-42.6-42.6S410.5,393.5,436.1,393.5z"/><path d="M180.4,393.5H223v213h-42.6v42.6h127.8v-42.6h-42.6v-213h42.6v-42.6H180.4V393.5z"/><path d="M734.3,350.9h-42.6c-46.9,0-85.2,38.3-85.2,85.2v127.8c0,46.9,38.3,85.2,85.2,85.2h42.6c46.9,0,85.2-38.3,85.2-85.2V436.1C819.6,389.2,781.2,350.9,734.3,350.9z M777,563.9c0,25.6-17,42.6-42.6,42.6h-42.6c-25.6,0-42.6-17-42.6-42.6V436.1c0-25.6,17-42.6,42.6-42.6h42.6c25.6,0,42.6,17,42.6,42.6V563.9z"/><path d="M862.2,223H137.8C65.4,223,10,278.4,10,350.9v298.3C10,721.6,65.4,777,137.8,777h724.3c72.4,0,127.8-55.4,127.8-127.8V350.9C990,278.4,934.6,223,862.2,223z M947.4,649.1c0,46.9-38.3,85.2-85.2,85.2H137.8c-46.9,0-85.2-38.3-85.2-85.2V350.9c0-46.9,38.3-85.2,85.2-85.2h724.3c46.9,0,85.2,38.3,85.2,85.2V649.1z"/></g>
</svg>