<?xml version="1.0" encoding="utf-8"?>
<!-- Svg Vector Icons : http://www.onlinewebfonts.com/icon -->
<!DOCTYPE svg PUBLIC "-//W3C//DTD SVG 1.1//EN" "http://www.w3.org/Graphics/SVG/1.1/DTD/svg11.dtd">
<svg version="1.1" xmlns="http://www.w3.org/2000/svg" xmlns:xlink="http://www.w3.org/1999/xlink" x="0px" y="0px" viewBox="0 0 1000 1000" enable-background="new 0 0 1000 1000" xml:space="preserve">
<metadata> Svg Vector Icons : http://www.onlinewebfonts.com/icon </metadata>
<g><path d="M98.7,514.8l-13.1-22.7L920.6,10l13.1,22.7L98.7,514.8L98.7,514.8z"/><path d="M909.5,990L66.3,503.1l28.2-16.2l828.1,480.4L909.5,990z"/><path d="M702.9,854.9c-30.4,0-53.9-35.6-71.9-108.7c-16.1-65.4-24.9-152.1-24.9-244.3c0-92.2,8.9-178.9,24.9-244.3c18-73.1,41.5-108.7,71.9-108.7s53.9,35.6,71.9,108.7c16.1,65.4,24.9,152.1,24.9,244.3c0,92.2-8.9,178.9-24.9,244.3C756.8,819.3,733.3,854.9,702.9,854.9z M702.9,169.8c-8.5,0-29.4,19.2-47.3,91.9c-15.7,64-24.4,149.3-24.4,240.1c0,90.8,8.7,176.1,24.4,240.1c17.9,72.7,38.7,91.9,47.3,91.9c8.5,0,29.4-19.2,47.3-91.9c15.7-64,24.4-149.3,24.4-240.1c0-90.8-8.7-176.1-24.4-240.1C732.3,189,711.4,169.8,702.9,169.8z"/><path d="M850.9,923.8l-24.6-8.9c84.8-236.2,80.4-447.2,61.8-582.5c-20.2-146.9-61.1-239.1-61.5-240l23.9-10.8c1.7,3.8,42.6,95.8,63.5,246.2c12.2,88.2,14.9,178.1,7.9,267.2C913,706.5,889.2,817.1,850.9,923.8z"/></g>
</svg>