<?xml version="1.0" encoding="utf-8"?>
<!-- Svg Vector Icons : http://www.onlinewebfonts.com/icon -->
<!DOCTYPE svg PUBLIC "-//W3C//DTD SVG 1.1//EN" "http://www.w3.org/Graphics/SVG/1.1/DTD/svg11.dtd">
<svg version="1.1" xmlns="http://www.w3.org/2000/svg" xmlns:xlink="http://www.w3.org/1999/xlink" x="0px" y="0px" viewBox="0 0 1000 1000" enable-background="new 0 0 1000 1000" xml:space="preserve">
<metadata> Svg Vector Icons : http://www.onlinewebfonts.com/icon </metadata>
<g><path d="M913.6,10l13.1,22.7l-835,482.1l-13.1-22.7L913.6,10L913.6,10z"/><path d="M902.5,990L59.3,503.1L87.5,487l828.1,480.4L902.5,990z"/><path d="M695.9,854.9c-25.3,0-44.9-35.6-59.9-108.7c-13.4-65.4-20.8-152.1-20.8-244.3c0-92.2,7.4-178.9,20.8-244.3c15-73.1,34.6-108.7,59.9-108.7s44.9,35.6,59.9,108.7c13.4,65.4,20.8,152.1,20.8,244.3c0,92.2-7.4,178.9-20.8,244.3C740.8,819.3,721.2,854.9,695.9,854.9z M695.9,169.9c-7.1,0-24.5,19.2-39.4,91.9c-13.1,64-20.3,149.3-20.3,240.1c0,90.8,7.2,176.1,20.3,240.1c14.9,72.7,32.3,91.9,39.4,91.9s24.5-19.2,39.4-91.9c13.1-64,20.3-149.3,20.3-240.1c0-90.8-7.2-176.1-20.3-240.1C720.4,189.1,703,169.9,695.9,169.9z"/><path d="M828.2,947.8c-17.9,0-34.3-13.3-48.9-39.5c-12.6-22.7-23.9-54.9-33.5-95.8c-19.4-82.8-30.2-192.7-30.2-309.5c0-116.8,10.7-226.7,30.2-309.5c9.6-40.8,20.8-73.1,33.5-95.8c14.6-26.2,31-39.5,48.9-39.5s34.3,13.3,48.9,39.5c12.6,22.7,23.9,54.9,33.5,95.8c19.4,82.8,30.2,192.7,30.2,309.5c0,116.8-10.7,226.7-30.2,309.5c-9.6,40.8-20.8,73.1-33.5,95.8C862.5,934.5,846.1,947.8,828.2,947.8z M828.2,79.2c-16.4,0-41.3,31.3-61.9,119.1c-19.1,81.3-29.6,189.5-29.6,304.7c0,115.2,10.5,223.5,29.6,304.7c20.6,87.8,45.5,119.1,61.9,119.1s41.3-31.3,61.9-119.1c19.1-81.3,29.6-189.5,29.6-304.7c0-115.2-10.5-223.5-29.6-304.7C869.5,110.5,844.6,79.2,828.2,79.2z"/></g>
</svg>