<?xml version="1.0" encoding="utf-8"?>
<!-- Svg Vector Icons : http://www.onlinewebfonts.com/icon -->
<!DOCTYPE svg PUBLIC "-//W3C//DTD SVG 1.1//EN" "http://www.w3.org/Graphics/SVG/1.1/DTD/svg11.dtd">
<svg version="1.1" xmlns="http://www.w3.org/2000/svg" xmlns:xlink="http://www.w3.org/1999/xlink" x="0px" y="0px" viewBox="0 0 1000 1000" enable-background="new 0 0 1000 1000" xml:space="preserve">
<metadata> Svg Vector Icons : http://www.onlinewebfonts.com/icon </metadata>
<g><g transform="translate(0.000000,311.000000) scale(0.100000,-0.100000)"><path d="M1443.4,1057.8c-162.7-44-292.9-122.5-421.2-248.9c-65.1-67-143.6-126.4-172.3-134c-97.6-23-216.3-105.3-294.8-206.8c-283.3-356.1-425-1032-451.8-2129C76.4-2840.2,220-3743.9,499.5-4172.8c84.2-128.3,227.8-247,333.1-275.7c42.1-11.5,113-65.1,189.5-141.7c135.9-136,294.8-224,469.1-260.4c63.2-13.4,233.6-17.2,442.3-13.4c375.3,9.6,471,32.5,635.6,155.1l84.2,61.3l718,9.6c821.3,11.5,792.6,5.7,970.7,185.7l99.6,101.5h373.3h373.3l91.9-97.7c49.8-55.5,135.9-118.7,187.6-143.6l95.7-45.9h1502.9h1502.9l99.6,45.9c55.5,26.8,141.7,90,191.4,141.7c70.8,74.7,116.8,101.5,199.1,126.4c551.4,157,840.5,995.6,840.5,2433.4c0,1267.4-222.1,2067.7-651,2343.4c-63.2,40.2-155.1,84.2-204.9,95.7c-68.9,17.2-114.9,45.9-183.8,118.7c-49.8,53.6-135.9,116.8-191.4,143.6l-99.6,45.9H7064.5H5561.6l-97.6-47.9c-53.6-26.8-137.8-91.9-185.7-143.6l-90-95.7h-208.7c-116.8,0-210.6-3.8-210.6-9.6c0-3.8,21.1-67,47.9-137.9c26.8-70.8,67-195.3,88.1-279.5c34.5-139.8,36.4-155.1,7.7-197.2c-45.9-70.8-111-93.8-180-67c-57.4,24.9-80.4,65.1-116.8,212.5c-13.4,47.9-57.4,174.2-97.6,281.4c-91.9,233.6-180,342.7-346.5,425l-116.8,59.4h-501.6h-501.6l90-180c95.7-189.5,204.9-503.5,224-637.6c9.6-67,3.8-86.2-38.3-128.3c-116.8-116.8-214.4-42.1-289.1,218.3c-76.6,266.1-218.3,547.6-348.5,687.3c-120.6,130.2-279.5,220.2-446.1,250.8C2090.5,1096.1,1562.1,1088.4,1443.4,1057.8z M7905,556.2c19.1-30.6,46-72.7,59.4-95.7l23-44h-379.1h-379.1l-51.7,95.7l-53.6,95.7h371.4h373.3L7905,556.2z M1041.3,278.6c59.4-30.6,84.2-65.1,157-216.3C1407-376.2,1518-1467.5,1456.8-2445.8c-51.7-817.5-199.1-1432.1-381-1585.3c-84.2-70.8-128.3-65.1-212.5,23C708.2-3845.4,578-3328.4,518.6-2627.7c-26.8,308.2-26.8,1166,0,1474.2C578-460.4,710.1,66.1,863.3,226.9C937.9,305.4,972.4,315,1041.3,278.6z M8100.3,144.6c0-3.8,13.4-45.9,28.7-95.7l26.8-91.9h-379.1h-379.1l-13.4,53.6c-5.7,28.7-15.3,70.8-23,95.7l-11.5,42.1h375.3C7931.8,148.4,8100.3,146.5,8100.3,144.6z M8222.9-351.3c5.7-32.5,11.5-80.4,11.5-105.3v-45.9h-361.9c-201,0-367.6,7.7-373.3,17.2c-7.6,9.6-17.2,57.4-22.9,105.3l-13.4,88.1h373.3h375.2L8222.9-351.3z M8287.9-851l5.7-91.9h-373.3c-354.2,0-375.3,1.9-375.3,36.4c0,19.1-5.7,63.2-11.5,95.7l-13.4,59.4l381-3.8l381-5.7L8287.9-851z M8326.2-1310.5l5.7-91.9h-371.4h-371.4l-13.4,59.4c-28.7,143.6-53.6,134,367.6,128.3l377.2-5.7L8326.2-1310.5z M8330.1-1747v-95.7h-373.3h-373.3v95.7v95.7h373.3h373.3V-1747z M3964.9-3891.3c51.7-51.7,49.8-147.4-3.8-204.9c-40.2-44-45.9-44-488.2-44h-448l-45.9,47.9c-57.4,57.4-61.3,122.5-7.7,189.5l38.3,49.8H3469C3901.7-3853,3928.5-3855,3964.9-3891.3z"/></g></g>
</svg>