<?xml version="1.0" encoding="utf-8"?>
<!-- Svg Vector Icons : http://www.onlinewebfonts.com/icon -->
<!DOCTYPE svg PUBLIC "-//W3C//DTD SVG 1.1//EN" "http://www.w3.org/Graphics/SVG/1.1/DTD/svg11.dtd">
<svg version="1.1" xmlns="http://www.w3.org/2000/svg" xmlns:xlink="http://www.w3.org/1999/xlink" x="0px" y="0px" viewBox="0 0 1000 1000" enable-background="new 0 0 1000 1000" xml:space="preserve">
<metadata> Svg Vector Icons : http://www.onlinewebfonts.com/icon </metadata>
<g><g transform="translate(0.000000,512.000000) scale(0.100000,-0.100000)"><path d="M4653.9,4998c-619.4-117-974.1-477.5-1242.6-1265.6c-53.7-157.2-99.7-289.6-105.5-293.4c-3.8-5.8-132.3,111.2-281.9,257c-151.5,147.7-326,301.1-389.3,343.3c-214.8,140-464.1,199.4-594.5,140c-69-30.7-105.5-109.3-105.5-222.4c0-168.8,111.2-1279.1,195.6-1929.1c19.2-159.2,26.8-178.3,94-251.2c262.7-283.8,1202.3-431.5,2771-431.5c1624.2,0,2621.4,161.1,2818.9,454.5c47.9,70.9,44.1,49.9,141.9,916.6c103.6,937.7,128.5,1290.6,95.9,1369.2c-67.1,164.9-350.9,155.3-650.1-21.1c-57.5-34.5-237.8-191.8-398.9-349c-161.1-157.3-297.2-281.9-303-276.1c-5.7,3.8-51.8,136.1-105.5,293.4c-253.1,738.3-575.3,1093-1125.6,1238.8C5271.3,5022.9,4861,5036.3,4653.9,4998z"/><path d="M2740.1,1061.1c-40.3-19.2-80.5-59.4-97.8-99.7c-30.7-63.3-28.8-101.6,32.6-699.9c36.4-347.1,117-1375,178.3-2282c124.6-1850.5,109.3-1745,281.9-1913.8c61.4-61.4,153.4-122.7,262.7-172.6c161.1-76.7,168.8-84.4,187.9-163c44.1-163,249.3-331.7,506.2-414.2c232-72.9,448.7-95.9,910.9-95.9c462.1,0,678.8,23,910.9,95.9c257,82.5,464.1,253.1,504.3,414.2c21.1,78.6,28.8,86.3,161.1,145.7c191.8,84.4,337.5,203.3,406.5,327.9l53.7,101.6L7152.5-2034c61.4,914.7,138.1,1917.6,170.7,2228.3c67.1,653.9,69,742.1,26.9,803.5c-57.5,80.5-132.3,97.8-304.9,67.1c-479.4-84.4-1129.5-122.7-2042.3-122.7c-690.3,0-1131.4,17.3-1543.7,57.5c-197.5,21.1-571.5,72.9-623.2,86.3C2820.6,1091.7,2776.5,1080.3,2740.1,1061.1z M6343.3,489.6c86.3-61.4,97.8-128.5,97.8-584.9c0-345.2-5.7-435.3-30.7-487.1C6351-710.8,6389.3-707,5002.9-707c-1390.3,0-1348.1-3.8-1409.5,126.6c-26.8,55.6-30.7,132.3-24.9,527.3l5.7,462.1l63.3,55.6l61.4,55.6H4999C6168.8,520.3,6303,516.5,6343.3,489.6z M4076.7-1550.7c32.6-19.2,69-53.7,80.5-72.9c28.8-53.7,235.9-1729.7,222.4-1787.2c-42.2-168.7-289.6-203.3-366.3-53.7c-19.2,36.4-69,377.8-136.2,910.9c-103.5,818.8-105.5,855.3-74.8,918.5c28.8,63.3,115.1,120.8,184.1,122.7C4001.9-1512.4,4042.1-1529.6,4076.7-1550.7z M5089.2-1543c124.6-57.5,124.6-63.3,124.6-993.3c0-920.5-1.9-941.6-113.1-997.2c-30.7-17.2-74.8-30.7-97.8-30.7c-23,0-67.1,13.4-97.8,30.7c-111.2,55.6-113.1,76.7-113.1,997.2c0,926.2,1.9,933.9,120.8,993.3C4989.5-1504.7,5010.6-1504.7,5089.2-1543z M6105.5-1539.2c42.2-19.2,78.6-51.8,97.8-94c28.8-59.4,25-107.4-76.7-920.5c-59.4-469.8-117-876.4-128.5-901.3c-26.9-59.5-113.1-109.3-189.9-109.3c-76.7,0-191.8,107.4-191.8,176.4c0,26.8,47.9,427.6,105.5,889.8c111.2,891.7,115.1,905.1,222.4,960.7C6003.9-1506.6,6025-1506.6,6105.5-1539.2z"/></g></g>
</svg>