<?xml version="1.0" encoding="utf-8"?>
<!-- Svg Vector Icons : http://www.onlinewebfonts.com/icon -->
<!DOCTYPE svg PUBLIC "-//W3C//DTD SVG 1.1//EN" "http://www.w3.org/Graphics/SVG/1.1/DTD/svg11.dtd">
<svg version="1.1" xmlns="http://www.w3.org/2000/svg" xmlns:xlink="http://www.w3.org/1999/xlink" x="0px" y="0px" viewBox="0 0 1000 1000" enable-background="new 0 0 1000 1000" xml:space="preserve">
<metadata> Svg Vector Icons : http://www.onlinewebfonts.com/icon </metadata>
<g><g transform="translate(0.000000,511.000000) scale(0.100000,-0.100000)"><path d="M2922.4,4984.9c-63.3-33.6-87-114.6-57.3-187.8c25.7-61.3,92.9-98.8,177.9-98.8h59.3v-593v-593h-203.6c-239.2,0-280.7-21.7-300.5-162.1c-5.9-47.4-9.9-527.8-5.9-1067.4l5.9-982.4l45.5-45.5c39.5-39.5,67.2-45.5,251-51.4l207.6-7.9v-1447v-1449l45.5-41.5c41.5-39.5,67.2-43.5,247.1-43.5h201.6v-345.9v-345.9h-593h-593v1304.6c0,925.1-5.9,1316.5-21.7,1352.1c-51.4,108.7-221.4,108.7-272.8,0c-15.8-35.6-21.7-452.7-21.7-1452.9v-1405.4l57.3-57.3l57.3-57.3h693.8h693.8v-197.7c0-185.8,4-203.6,49.4-247.1c43.5-45.5,61.3-49.4,247.1-49.4h197.7v-693.8v-693.8l57.3-57.3l57.3-57.3h1031.9c1087.2,0,1120.8,2,1154.4,89c5.9,17.8,11.9,343.9,11.9,723.5v689.9h197.7c185.8,0,203.6,4,247.1,49.4l49.4,47.5v703.7v701.7h207.6c181.9,0,213.5,5.9,247.1,39.5c21.7,21.7,39.5,59.3,41.5,83c0,25.7,0,654.3,0,1399.5c0,745.2,4,1377.8,9.9,1407.4c9.9,51.4,11.9,51.4,207.6,59.3c189.8,5.9,201.6,7.9,247.1,61.3l47.5,55.4V2348c0,1085.2-2,1118.8-89,1152.4c-17.8,5.9-116.6,11.9-217.4,11.9h-183.8l-9.9,94.9c-13.8,112.7-13.8,1010.1-2,1053.6c6,21.7,39.5,35.6,92.9,43.5c140.4,19.8,199.7,150.2,114.6,253l-37.5,47.4l-2300.9,4C3304,5012.6,2965.9,5008.7,2922.4,4984.9z M7095.3,4105.3v-593H5247.1H3398.8v593v593h1848.2h1848.2V4105.3z M3596.5,2355.9v-840.1h-345.9h-345.9v840.1V3196h345.9h345.9V2355.9z M4600.7,2361.8l-5.9-836.1l-340-5.9l-342-4v840.1V3196h345.9h345.9L4600.7,2361.8z M5593,2355.9v-840.1h-345.9h-345.9v840.1V3196h345.9H5593V2355.9z M6601.2,2355.9v-840.1h-345.9h-345.9v840.1V3196h345.9h345.9V2355.9z M7589.5,2355.9v-840.1h-345.9h-345.9v840.1V3196h345.9h345.9V2355.9z M7091.4-138.8l-5.9-1340.2H5247.1H3408.7l-5.9,1340.2l-4,1338.3h1848.2h1848.2L7091.4-138.8z M6597.2-2382.4l4-589.1H5257H3912.8v593v593l1340.2-4l1338.3-5.9L6597.2-2382.4z M6087.2-3880.7v-593h-840.1H4407v593v593h840.1h840.1V-3880.7z"/><path d="M4138.1,466.1c-35.6-37.5-37.6-83-43.5-593l-5.9-553.5l59.3-57.3l57.3-59.3h1031.9c745.2,0,1041.7,5.9,1073.4,23.7c90.9,47.4,90.9,57.3,92.9,630.6c0,523.9-2,547.6-41.5,599l-39.5,51.4H5249C4183.6,507.6,4175.7,507.6,4138.1,466.1z M6087.2-134.8v-345.9h-840.1H4407v345.9v345.9h840.1h840.1V-134.8z"/></g></g>
</svg>