<?xml version="1.0" encoding="utf-8"?>
<!-- Svg Vector Icons : http://www.onlinewebfonts.com/icon -->
<!DOCTYPE svg PUBLIC "-//W3C//DTD SVG 1.1//EN" "http://www.w3.org/Graphics/SVG/1.1/DTD/svg11.dtd">
<svg version="1.1" xmlns="http://www.w3.org/2000/svg" xmlns:xlink="http://www.w3.org/1999/xlink" x="0px" y="0px" viewBox="0 0 1000 1000" enable-background="new 0 0 1000 1000" xml:space="preserve">
<metadata> Svg Vector Icons : http://www.onlinewebfonts.com/icon </metadata>
<g><g transform="translate(0.000000,512.000000) scale(0.100000,-0.100000)"><path d="M4650.7,4998c-619.4-117-974.2-477.5-1242.6-1265.6c-53.7-157.2-99.7-289.6-105.5-293.4c-3.8-5.8-132.3,111.2-281.9,257c-151.5,147.6-326,301.1-389.3,343.3c-297.2,195.6-609.8,216.7-680.8,47.9c-30.7-71-19.2-264.6,47.9-930c80.5-784.3,141.9-1254.1,170.7-1311.6c42.2-78.6,141.9-159.2,266.5-212.9c59.4-26.8,109.3-59.4,109.3-74.8c0-13.4,42.2-454.5,94-978c51.8-523.5,99.7-1010.6,107.4-1085.4c5.7-72.9,57.5-815,113.1-1649.2c113.1-1700.9,99.7-1610.8,272.3-1779.5c61.4-61.4,153.4-122.7,262.7-172.6c161.1-76.7,168.8-84.4,187.9-163c44.1-163,249.3-331.7,506.2-414.2c232-72.9,448.7-95.9,910.9-95.9c462.1,0,678.8,23,910.9,95.9c257,82.5,462.1,251.2,506.3,414.2c19.2,78.6,26.8,86.3,187.9,163c109.3,51.8,203.3,113.1,262.7,172.6c172.6,170.7,159.2,76.7,272.3,1779.5c55.6,834.2,107.4,1576.3,113.1,1649.2c7.7,74.8,55.6,561.9,107.4,1085.4c51.8,523.5,94,964.6,94,978c0,15.3,49.9,47.9,111.2,74.8c164.9,71,266.6,172.6,289.6,293.4c28.8,141.9,166.8,1399.9,195.6,1779.6c21.1,262.7,19.2,329.8-1.9,379.7c-67.1,164.9-352.9,155.3-650.1-21.1c-57.5-34.5-237.8-191.8-398.9-349c-163-157.2-299.1-280-304.9-274.2c-5.8,5.8-53.7,138.1-105.5,293.4c-243.5,728.7-573.4,1091.1-1123.7,1236.9C5268.1,5022.9,4857.8,5036.3,4650.7,4998z M5360.2,4574.2c191.8-49.9,312.6-120.8,464.1-274.2c176.4-178.3,264.6-345.2,400.8-763.2c143.8-446.8,222.4-552.3,414.2-550.4c157.2,1.9,270.4,74.8,575.3,370.1c264.6,258.9,404.6,379.7,421.9,362.4c13.4-11.5-145.7-1534.1-172.6-1658.7c-11.5-53.7-80.5-84.4-308.7-138.1C6698.7,1816.6,5966.2,1761,4999.7,1761c-999.1,0-1706.7,55.6-2193.8,170.7c-209,51.8-280,90.1-280,157.2c0,19.2-21.1,218.6-47.9,444.9c-74.8,653.9-126.6,1175.5-115.1,1185.1c17.3,17.3,153.4-99.7,421.9-362.4c304.9-295.3,418-368.2,575.3-370.1c191.8-1.9,268.5,101.6,414.2,548.4c120.8,372,218.6,571.5,358.6,724.9c180.3,201.3,395,310.7,675,345.2C4961.3,4624,5222.1,4610.6,5360.2,4574.2z M3187.5,1442.7c887.9-132.3,2761.4-128.5,3670.3,5.8c90.1,15.3,166.8,23,170.7,21.1c3.8-3.8-36.4-441.1-90.1-974.2c-53.7-533.1-97.8-974.2-97.8-979.9c0-24.9-153.4-86.3-287.6-115.1c-234-49.9-439.1-69.1-1012.5-90.1c-606-24.9-1459.3-1.9-1856.3,49.9c-210.9,26.9-444.9,82.5-500.5,120.8c-15.3,9.6-55.6,337.5-120.8,976.1c-51.8,527.3-95.9,974.2-95.9,991.4c0,23,11.5,28.8,44.1,23C3034.1,1465.7,3114.7,1452.3,3187.5,1442.7z M3446.4-1013.8c310.7-59.4,579.1-78.6,1284.8-90.1c928.1-15.3,1605,26.8,1957.9,117c57.5,15.3,107.4,24.9,111.2,19.2c3.8-3.8-30.7-594.5-78.6-1313.6c-86.3-1286.7-88.2-1305.9-132.3-1353.8c-103.6-111.2-368.2-207.1-767.1-278.1c-210.9-38.4-303-44.1-813.1-44.1c-469.8,0-613.6,5.8-784.3,34.5c-291.5,49.9-479.4,101.6-634.7,176.4c-243.5,117-212.9-24.9-308.7,1403.7c-97.8,1459.3-95.9,1394.1-49.9,1376.8C3248.9-973.5,3346.7-994.6,3446.4-1013.8z"/><path d="M3682.3,911.5c-113.1-57.5-122.7-107.4-117-623.2l5.8-462.2l63.3-55.6l61.4-55.6h1300.1c1426.7,0,1350-5.8,1413.3,115c44.1,84.4,42.2,897.5-1.9,987.6c-59.5,128.5-21.1,124.6-1411.4,124.6C3899,942.2,3736,938.3,3682.3,911.5z M6016,319V117.6H4999.7H3983.3V319v201.4h1016.3H6016V319z"/><path d="M3893.2-1541.1c-38.3-15.3-74.8-53.7-94-94c-30.7-63.3-28.8-99.7,74.8-916.6c57.5-467.9,117-874.4,130.4-903.2c28.8-63.3,107.4-109.3,187.9-109.3c71,0,166.8,78.6,184.1,149.6c13.4,65.2-193.7,1737.4-222.4,1791.1c-23,42.2-128.5,111.2-170.7,111.2C3968-1514.3,3925.8-1525.8,3893.2-1541.1z"/><path d="M4909.5-1543c-118.9-59.5-120.8-67.1-120.8-993.3c0-920.5,1.9-941.6,113.1-997.2c30.7-17.3,74.8-30.7,97.8-30.7c23,0,67.1,13.4,97.8,30.7c111.2,55.6,113.1,76.7,113.1,997.2c0,930,0,935.8-124.6,993.3C5007.3-1504.7,4986.2-1504.7,4909.5-1543z"/><path d="M5941.2-1537.3c-107.4-55.6-111.2-69-222.4-953.1c-57.5-458.3-105.5-859.1-105.5-887.9c0-78.6,111.2-186,191.8-186c76.7,0,163,49.9,189.9,111.2c13.4,24.9,70.9,431.5,128.5,901.3c101.7,811.2,105.5,859.1,76.7,920.5c-19.2,40.3-55.6,74.8-97.8,92.1C6021.8-1506.6,6000.7-1506.6,5941.2-1537.3z"/></g></g>
</svg>