<?xml version="1.0" encoding="utf-8"?>
<!-- Svg Vector Icons : http://www.onlinewebfonts.com/icon -->
<!DOCTYPE svg PUBLIC "-//W3C//DTD SVG 1.1//EN" "http://www.w3.org/Graphics/SVG/1.1/DTD/svg11.dtd">
<svg version="1.1" xmlns="http://www.w3.org/2000/svg" xmlns:xlink="http://www.w3.org/1999/xlink" x="0px" y="0px" viewBox="0 0 1000 1000" enable-background="new 0 0 1000 1000" xml:space="preserve">
<metadata> Svg Vector Icons : http://www.onlinewebfonts.com/icon </metadata>
<g><path d="M950.9,55.8L754.4,10.5c-4.2-0.9-8.7-0.5-12.6,1.3L506.2,119.5L289.1,29c-4.7-2-10-2-14.7-0.2L46.4,117.6c-7.6,2.9-12.6,10.3-12.6,18.4v625.5c0,6.5,3.2,12.6,8.6,16.3c5.4,3.6,12.2,4.5,18.3,2.1l220.6-86l217.8,90.8c2.4,1,5,1.5,7.6,1.5c2.8,0,5.6-0.6,8.2-1.8l31.8-14.5c48.7,96.9,112,194.3,123.2,211.3c3.6,5.5,9.8,8.9,16.5,8.9c6.6,0,12.8-3.3,16.5-8.9c13.9-21.1,108.6-166.6,155.2-280.9l84.1,19.4c5.9,1.3,12-0.1,16.7-3.8c4.7-3.7,7.4-9.4,7.4-15.4V75C966.2,65.8,959.8,57.8,950.9,55.8z M686.2,933.9c-55.8-88-158-263.7-158-331.9c0-87.1,70.9-158,158-158c87.2,0,158,70.9,158,158C844.3,670.2,742,845.9,686.2,933.9z M926.7,675.7L871.6,663c7.6-23.3,12.1-44.2,12.1-61c0-108.9-88.6-197.5-197.5-197.5c-108.9,0-197.5,88.6-197.5,197.5c0,32.7,17.1,81.1,40.7,132.4L506.3,745l-217.2-90.6c-2.4-1-5-1.5-7.6-1.5c-2.4,0-4.8,0.4-7.2,1.3L73.3,732.6l0-583.1l208-81l217.8,90.8c5.1,2.1,10.8,2.1,15.8-0.3L752.1,50.4l174.7,40.3V675.7z"/><path d="M281.5,147.7c-10.9,0-19.7,8.8-19.7,19.7v396.9c0,10.9,8.8,19.7,19.7,19.7c10.9,0,19.7-8.8,19.7-19.7V167.4C301.2,156.5,292.4,147.7,281.5,147.7z"/><path d="M506.6,224.5c-10.9,0-19.7,8.8-19.7,19.7v151.4c0,10.9,8.8,19.7,19.7,19.7c10.9,0,19.7-8.8,19.7-19.7V244.3C526.4,233.3,517.5,224.5,506.6,224.5z"/><path d="M734.6,139.2v200.6c0,10.9,8.8,19.7,19.7,19.7s19.7-8.8,19.7-19.7V139.2c0-10.9-8.8-19.7-19.7-19.7S734.6,128.3,734.6,139.2z"/><path d="M686.2,505.4c-40.6,0-73.7,33.1-73.7,73.7c0,40.6,33.1,73.7,73.7,73.7c40.6,0,73.7-33,73.7-73.7C759.9,538.5,726.9,505.4,686.2,505.4z M686.2,613.4c-18.9,0-34.3-15.4-34.3-34.2c0-18.9,15.4-34.3,34.3-34.3c18.9,0,34.3,15.4,34.3,34.3C720.5,598,705.1,613.4,686.2,613.4z"/></g>
</svg>