<?xml version="1.0" encoding="utf-8"?>
<!-- Svg Vector Icons : http://www.onlinewebfonts.com/icon -->
<!DOCTYPE svg PUBLIC "-//W3C//DTD SVG 1.1//EN" "http://www.w3.org/Graphics/SVG/1.1/DTD/svg11.dtd">
<svg version="1.1" xmlns="http://www.w3.org/2000/svg" xmlns:xlink="http://www.w3.org/1999/xlink" x="0px" y="0px" viewBox="0 0 1000 1000" enable-background="new 0 0 1000 1000" xml:space="preserve">
<metadata> Svg Vector Icons : http://www.onlinewebfonts.com/icon </metadata>
<g><path d="M500.1,10c-175.9,0-318.5,142.5-318.5,318.4c0,137.7,194.2,490.4,278.7,637.5c1.1,2,2.1,3.8,3.2,5.6c7.9,11.2,20.8,18.6,35.5,18.6c14.3,0,26.7-6.9,34.8-17.4c1.8-3.3,3.7-6.4,5.6-9.8C625.4,814,818.4,465,818.4,328.4C818.5,152.6,675.9,10,500.1,10 M500.1,456.2c-62,0-112.3-50.2-112.3-112.2c0-62,50.3-112.3,112.3-112.3c62,0,112.1,50.2,112.1,112.2C612.2,406,562.1,456.2,500.1,456.2"/></g>
</svg>