<?xml version="1.0" encoding="utf-8"?>
<!-- Svg Vector Icons : http://www.onlinewebfonts.com/icon -->
<!DOCTYPE svg PUBLIC "-//W3C//DTD SVG 1.1//EN" "http://www.w3.org/Graphics/SVG/1.1/DTD/svg11.dtd">
<svg version="1.1" xmlns="http://www.w3.org/2000/svg" xmlns:xlink="http://www.w3.org/1999/xlink" x="0px" y="0px" viewBox="0 0 1000 1000" enable-background="new 0 0 1000 1000" xml:space="preserve">
<metadata> Svg Vector Icons : http://www.onlinewebfonts.com/icon </metadata>
<g><g transform="translate(0.000000,512.000000) scale(0.100000,-0.100000)"><path d="M274.1,4972.2l-47.8-45.9V602.2c0-3172.3,5.7-4337.5,21-4371.9c13.4-24.9,44-55.5,72.7-67c26.8-11.5,742.4-227.7,1590-482.1L3450.2-4780l1547.9,463L6545.9-3852l1542.1-463c847.6-254.5,1553.6-461.1,1567-461.1s45.9,21,70.8,47.9l47.9,45.9v4324.1c0,3185.7-5.7,4337.5-21,4371.9c-13.4,26.8-36.4,53.6-53.6,59.3c-36.3,15.3-3053.6,926-3112.9,941.4c-23,5.7-707.9-191.3-1586.1-455.4l-1546-463l-1542.1,463C1064.3,4813.4,358.3,5020,344.9,5020C331.5,5020,299,4998.9,274.1,4972.2z M6482.8,3433.9V2134.7l-80.4-30.6c-45.9-17.2-233.4-80.4-417.1-141.6c-275.5-91.8-336.7-118.6-340.6-151.2c-13.4-91.8,30.6-86.1,442,49.7l396.1,133.9l-3.8-575.9l-5.7-575.9l-993-254.5c-545.3-141.6-1002.6-265.9-1017.9-277.4c-36.4-28.7-34.4-68.9,5.7-89.9c30.6-19.1,89.9-3.8,1542.1,369.3l474.5,122.5l-5.7-271.7l-5.7-271.7L5939.4,32c-294.6-76.5-545.3-149.2-560.6-164.6c-36.3-36.3-11.5-89.9,45.9-89.9c40.2,0,719.4,168.4,968.1,239.2l89.9,26.8V-1778v-1821.5l-1458-438.2c-801.7-239.2-1467.5-440.1-1482.8-445.8c-21-7.6-24.9,698.4-24.9,4157.6v4169.1l1469.4,442c807.4,244.9,1473.3,443.9,1482.8,445.8C6477.1,4733,6482.8,4147.5,6482.8,3433.9z M8086.2,4291l1419.7-426.7v-658.2c0-593.1-3.8-658.2-30.6-646.7c-317.6,122.4-1630.2,566.3-1660.8,562.5c-28.7-3.8-40.2-19.1-40.2-53.6c0-45.9,36.3-61.2,851.4-348.2c468.8-164.5,857.2-302.3,866.7-306.1c7.7-3.8,11.5-1551.7,9.6-3442l-5.7-3436.3l-1438.8,430.5l-1440.7,432.4v359.7c0,197.1,1.9,359.7,5.7,359.7c3.8,0,334.8-97.6,738.5-218.1c403.7-120.5,746.2-214.3,759.6-208.5c28.7,11.5,36.4,93.8,11.5,109.1c-9.6,5.7-338.7,105.2-732.8,221.9c-394.2,116.7-730.9,216.2-748.1,221.9c-32.5,9.6-34.4,204.7-34.4,3752c0,2982.9,5.7,3738.6,24.9,3731C6653.1,4723.4,7303.6,4526.4,8086.2,4291z M1961.7,4271.9l1421.6-426.7V-322v-4165.3l-89.9,26.8c-51.7,15.3-700.3,210.5-1444.6,434.3L494.1-3620.5v445.8c0,244.9,3.8,445.8,7.6,445.8c1.9,0,447.7-133.9,987.3-296.6c1019.8-306.1,1042.8-311.9,1029.4-212.4c-5.7,34.4-101.4,67-751.9,264c-409.4,124.4-864.8,260.2-1010.2,304.2l-262.1,80.4v371.2c0,344.4,1.9,371.2,32.5,361.6c443.9-132,1082.9-300.4,1105.9-290.8c34.4,13.4,38.3,76.5,5.7,101.4c-13.4,11.5-231.5,76.5-484.1,147.3c-252.6,70.8-505.1,141.6-558.7,156.9L494.1-1713v3216.3c0,2561.9,5.7,3212.5,24.9,3204.8C530.5,4704.3,1181,4507.2,1961.7,4271.9z"/><path d="M8466.9-3316.3c-28.7-26.8-11.5-84.2,30.6-101.4c22.9-9.6,208.6-70.8,411.4-135.8c344.4-109.1,373.1-114.8,401.8-86.1c61.2,59.3,3.8,91.8-380.7,216.2C8568.3-3306.7,8491.8-3289.5,8466.9-3316.3z"/></g></g>
</svg>