<?xml version="1.0" encoding="utf-8"?>
<!-- Svg Vector Icons : http://www.onlinewebfonts.com/icon -->
<!DOCTYPE svg PUBLIC "-//W3C//DTD SVG 1.1//EN" "http://www.w3.org/Graphics/SVG/1.1/DTD/svg11.dtd">
<svg version="1.1" xmlns="http://www.w3.org/2000/svg" xmlns:xlink="http://www.w3.org/1999/xlink" x="0px" y="0px" viewBox="0 0 1000 1000" enable-background="new 0 0 1000 1000" xml:space="preserve">
<metadata> Svg Vector Icons : http://www.onlinewebfonts.com/icon </metadata>
<g><path d="M987,908.2L879.1,672c-10.9-23.8-37.9-43.8-67.1-49.7l-189.3-39.9c-12.9-2.9-26.5-1.8-38.2,2.8c55.6-102.1,115-236,115-342.2c0-118.9-96.8-215.7-215.7-215.7c-118.9,0-215.7,96.8-215.7,215.7c0,129.7,88.5,300.7,150.5,404.5c0,0,0,0,0,0l-2.8,1.1c-9.7,3.3-20,4.3-29.2,2.9l-143.2-22.6c-34.3-5.6-82.8,18.3-101.9,50.1L14.2,892.3c-4.9,8.2-5.6,16.9-1.9,24.4c4.8,10,16.4,16.7,32.7,18.9l269.6,35.9c6,0.8,12.1,1.2,18.3,1.2c10.3,0,20.8-1.1,31-3.2l249.8-57.1c14.4-3.6,30.9-4.1,46.6-1.4l258.2,43.3c28.8,4.7,54.7-1.7,65.8-16.4C990.8,929.1,991.8,918.6,987,908.2z M483.8,42.8C594.2,42.8,684,132.6,684,243c0,171.2-165.4,426.5-200.2,478.3C449.1,669.6,283.6,414.2,283.6,243C283.6,132.6,373.4,42.8,483.8,42.8z M477.5,739.5l6.3,9.1l6.3-9.1c2.9-4.2,28.2-40.5,60.1-94.3l50.8-18.1c4.5-1.8,9.7-2.2,14.8-1.1l180.9,37.3c11.5,2.3,21.9,10,25.4,18.7l83.3,209.2c0.3,0.7,0.1,0.9-0.1,1.2c-1.2,1.5-5.7,3.3-12.7,2.2l-250.6-43.1c-8.8-1.6-18.1-1.2-26.2,0.9l-252.5,61.4c-13.7,3-28.5,3.7-41.9,2L96,885.1c-2.2-0.3-3.2-0.9-3.3-1l101-191c6.5-12.2,26.5-22.1,40.4-19.9l155.7,23.9c6.5,1,13.5,0.4,20.3-1.8l31.1-11.1C461.2,716.1,475.3,736.5,477.5,739.5z M967.8,925.2c-5.4,7.1-23,12.3-46,8.5l-258.1-43.2c-18.4-3.1-37.9-2.5-54.8,1.7l-249.4,57c-13.7,2.9-28.7,3.5-42.1,1.8L47.8,915.1c-11.3-1.5-15.9-5.3-16.9-7.4c-0.6-1.2-0.2-2.8,1-4.9l127.3-213.3C174,665,214,645,240.2,649.2l143.3,22.6c12.5,1.9,26,0.6,39.3-3.9l6.8-2.5c0,0,0,0,0,0c2,3.3,4.1,6.6,6,9.8l-28.8,10.3c-5.1,1.6-10.6,2.1-15.4,1.4L235.7,663c-18.2-2.8-42.6,9.2-51.1,25.3l-101,191c-1.6,3.1-1.7,6.4-0.3,9.3c1.8,3.6,5.9,6,11.3,6.7l225.6,30.6c5.4,0.7,10.9,1.1,16.5,1.1c9.7,0,19.5-1.1,29.1-3.2l252.7-61.4c6.8-1.8,14.5-2.1,21.9-0.8L891,904.7c9.7,1.6,18.3-0.6,22.5-5.9c2.7-3.3,3.3-7.5,1.7-11.5l-83.3-209.2c-4.8-12-18-22-33-25l-180.8-37.3c-7-1.5-14.4-0.9-20.6,1.6l-39,13.9c3.5-6,7-12.1,10.6-18.4c0,0,0,0,0,0l21.4-8.1c8.5-3.6,18.4-4.4,27.9-2.3l189.5,39.9c22.7,4.6,44.3,20.2,52.4,38l107.9,236.2C970.2,921.1,969.1,923.5,967.8,925.2z"/><path d="M573.6,243c0-49.5-40.3-89.8-89.8-89.8c-49.5,0-89.8,40.3-89.8,89.8s40.3,89.8,89.8,89.8C533.3,332.8,573.6,292.5,573.6,243z M483.8,315.1c-39.8,0-72.1-32.3-72.1-72.1c0-39.8,32.3-72.1,72.1-72.1s72.1,32.3,72.1,72.1C555.9,282.8,523.6,315.1,483.8,315.1z"/></g>
</svg>