<?xml version="1.0" encoding="utf-8"?>
<!-- Svg Vector Icons : http://www.onlinewebfonts.com/icon -->
<!DOCTYPE svg PUBLIC "-//W3C//DTD SVG 1.1//EN" "http://www.w3.org/Graphics/SVG/1.1/DTD/svg11.dtd">
<svg version="1.1" xmlns="http://www.w3.org/2000/svg" xmlns:xlink="http://www.w3.org/1999/xlink" x="0px" y="0px" viewBox="0 0 1000 1000" enable-background="new 0 0 1000 1000" xml:space="preserve">
<metadata> Svg Vector Icons : http://www.onlinewebfonts.com/icon </metadata>
<g><g transform="translate(0.000000,511.000000) scale(0.100000,-0.100000)"><path d="M100,714.5c0-2366.2,5.8-4303.7,11.5-4303.7c7.7,0,753.5-198,1658.8-440.2l1645.4-442.1l865,182.6c474.8,100,865,184.6,866.9,186.5c1.9,1.9-53.8,67.3-124.9,144.2L4895.8-3816l-643.9-136.5c-353.7-75-649.7-136.5-657.4-136.5c-9.6,0-15.4,1778-15.4,3950.1c0,3667.5,1.9,3952,32.7,3963.5c61.5,23.1,2783.3,595.9,2798.7,588.2c7.7-3.8,13.5-582.4,13.5-1285.9V1850.5h163.4h163.4v1278.2c0,703.5,3.8,1278.2,7.7,1278.2c3.8,0,636.2-169.2,1405.1-374.8c770.8-205.7,1403.2-374.8,1405.1-374.8c3.8,0,7.7-1779.9,7.7-3955.8v-3957.8l-615.1,165.3l-617,163.4l-132.6-132.6c-73-73-130.7-134.6-126.9-138.4c5.8-5.8,1795.3-486.3,1810.7-486.3c3.8,0,5.8,1935.6,3.8,4299.9l-5.8,4299.9l-1633.8,438.3c-897.7,240.3-1651.2,438.3-1672.3,438.3s-742-148-1601.2-328.7l-1560.8-330.6l-1418.6,378.7C1228.3,4718.4,480.6,4916.4,346,4952.9l-246,65.4V714.5z M1849.2,4207.1l1393.6-372.9l5.8-3952c3.8-3156.2,0-3952-19.2-3952c-13.4,0-647.8,167.2-1409,371l-1384,372.9l-5.8,3952C428.7,2802,432.5,4580,440.2,4580C449.8,4578.1,1082.2,4410.9,1849.2,4207.1z"/><path d="M6377.8,1387.3c-1205.2-126.9-2145.1-1164.8-2145.1-2372c0-188.4,9.6-272.9,46.1-415.2c117.3-445.9,388.3-963,853.4-1616.6c355.6-503.6,890-1145.6,1309-1572.3l203.7-209.5l263.3,282.6C8052-3287.4,8819-2132.2,9011.2-1349.9c48.1,198,44.2,559.4-9.6,816.9C8782.5,512.7,7929,1279.6,6864.1,1389.2C6648.8,1410.4,6597,1410.4,6377.8,1387.3z M7156.3,979.8c761.2-199.9,1337.8-813.1,1499.3-1593.5c61.5-301.8,46.2-572.8-46.1-847.7c-117.3-347.9-376.8-818.8-705.4-1282.1c-297.9-421-803.5-1043.7-1151.4-1422.4l-115.3-124.9l-88.4,96.1c-976.5,1072.6-1676.1,2091.3-1895.3,2758.3c-134.6,413.3-82.7,890,148,1347.5C5090,487.7,5632,893.3,6275.9,1016.3C6497,1058.6,6927.6,1039.4,7156.3,979.8z"/><path d="M6470.1,447.3c-499.8-51.9-943.8-371-1161-836.1c-96.1-203.8-134.6-386.4-134.6-628.6c0-386.4,130.7-715,390.2-991.8c286.4-303.7,638.2-453.6,1061-453.6c274.9,0,449.8,42.3,690.1,167.2c198,101.9,470.9,365.2,576.6,553.6C8474.9-686.7,7659.9,568.4,6470.1,447.3z M6883.4,72.5c192.2-46.1,376.7-151.8,530.5-305.6c213.3-215.3,317.2-469,317.2-770.8c0-313.3-101.9-557.4-324.9-778.5c-236.4-234.5-457.5-326.8-780.4-326.8c-313.3,0-547.8,96.1-768.9,315.2c-444,436.4-447.9,1132.2-11.5,1566.6C6122.2,49.5,6508.5,160.9,6883.4,72.5z"/></g></g>
</svg>