<?xml version="1.0" encoding="utf-8"?>
<!-- Svg Vector Icons : http://www.onlinewebfonts.com/icon -->
<!DOCTYPE svg PUBLIC "-//W3C//DTD SVG 1.1//EN" "http://www.w3.org/Graphics/SVG/1.1/DTD/svg11.dtd">
<svg version="1.1" xmlns="http://www.w3.org/2000/svg" xmlns:xlink="http://www.w3.org/1999/xlink" x="0px" y="0px" viewBox="0 0 1000 1000" enable-background="new 0 0 1000 1000" xml:space="preserve">
<metadata> Svg Vector Icons : http://www.onlinewebfonts.com/icon </metadata>
<g><path d="M191.2,752.2c18.3-7.2,33.2-28.7,33.2-47.9s-14.9-29.1-33.2-21.9S158,711.1,158,730.3C158,749.6,172.9,759.4,191.2,752.2z M204.2,623.4l-21-3.2c-1,7.2-1.9,14.8-2.6,22.7l21.1,2.1C202.4,637.5,203.3,630.3,204.2,623.4z M284.2,495.4l-5.1-21.7c-15.4,4.2-29.3,11.5-41.3,21.7l13.5,17.3C260.7,504.5,271.8,498.6,284.2,495.4z M227.4,543.3L209,532.4c-6.6,12.4-12.3,26.9-16.7,43.1l20.4,6.2C216.7,567.2,221.6,554.3,227.4,543.3z M981.1,44.8c-5.6-4.2-12.8-5.3-19.2-3L656.2,151.7L350.6,41.8c-0.6-0.1-1.1-0.1-1.6-0.3c-0.9-0.2-1.9-0.5-2.9-0.6c-0.7-0.1-1.5-0.1-2.3-0.1c-0.9,0-1.8,0-2.6,0.1c-0.9,0.1-1.8,0.4-2.6,0.6c-0.6,0.1-1.2,0.2-1.7,0.3L24.4,154.1c-8.6,3.1-14.4,11.6-14.4,21.2v761.8c0,7.2,3.3,14,8.9,18.2c3.7,2.8,8,4.1,12.4,4.1c2.3,0,4.7-0.4,6.9-1.2l305.6-109.8l305.7,109.8c0,0.1,0.1,0,0.1,0.1c2.1,0.7,4.4,1.2,6.7,1.2c2.3,0,4.5-0.4,6.7-1.2c0-0.1,0.1,0,0.1-0.1l312.6-112.3c8.6-3.1,14.3-11.5,14.3-21.1V63C990,55.8,986.6,49.1,981.1,44.8z M322.6,471.9c-5-0.8-10-1.5-14.7-1.8l-1.5,22.2c5.1,0.4,10.6,1.2,16.2,2v314.4L52.4,905.8V191.3l270.1-97V471.9z M635.1,469.8l-11.6,4.8c4.5,11.9,7.8,25.5,9.8,40.1l1.8-0.3v41l-0.5-0.1c-2.5,18.1-9.6,22.6-15.6,24.5l6.2,21.4c3.7-1.2,6.8-3,9.9-5v165.4c-3.7,0.9-7.4,1.7-11.1,2.2l2.6,22.2c2.9-0.4,5.6-1.2,8.5-1.7v121.3l-270.1-97.1V94.3l270.1,97V469.8z M947.6,808.7l-270.1,97.1V191.3l270.1-97V808.7z M805.3,440.8c6.8,0,13.5-3.4,17.6-9.7l25.7-39.7l15,8.5c3.2,1.8,6.6,2.6,10,2.6c7.5,0,14.9-4.2,18.7-11.7c5.6-11,1.6-24.4-8.7-30.3l-11-6.2l23.2-35.6c6.6-10.2,4.1-24.2-5.6-31.1c-9.7-6.9-22.9-4.3-29.5,5.9L835,333.1l-15-8.5c-10.4-5.8-23.2-1.7-28.7,9.1c-5.6,10.9-1.7,24.4,8.7,30.3l11,6.2l-23.1,35.6c-6.6,10.2-4.1,24.1,5.5,31.1C797.1,439.5,801.2,440.8,805.3,440.8z M465,426.4l-11-19.1c-12.8,8.3-24.4,18.4-34.5,29.9l15.6,15.1C443.8,442.3,453.9,433.6,465,426.4z M403.5,519.6c6.4,2.8,12.9,5.6,19.4,8.6l8.5-20.5c-7.5-3.4-14.9-6.6-22.4-9.8c1.3-4,2.9-8,4.7-11.9l-19.2-9.6c-6.4,14.4-10.7,29.7-12.6,45.4l21,2.9C403,523.1,403.3,521.4,403.5,519.6z M538.5,406.1l1.3-22.3c-14.7-1.1-29.8,0.6-44.8,4.9l5.5,21.6C513.3,406.6,526.1,405.2,538.5,406.1z M743.8,727l-14.3-16.5c-9.9,9.5-20.6,18.1-31.7,25.3l11.2,19C721.2,746.9,732.9,737.6,743.8,727z M413,601.5c-4.5-12.1-7.7-24.2-9.4-36.1l-20.9,3.6c2,13.4,5.6,27.1,10.6,40.6l1.5,4l19.7-8.3L413,601.5z M797.1,654.9l-18.6-10.8c-6.5,12.5-13.9,24.4-22,35.3l16.8,13.7C782,681.4,790,668.5,797.1,654.9z M604.1,440l16.2-14.5c-10.2-12.6-22.4-22.5-36.1-29.6l-9.3,20C585.9,421.7,595.8,429.7,604.1,440z M539.3,776.5c14,5.2,28.4,8.7,43.2,10.3l2.1-22.2c-12.9-1.4-25.8-4.5-38.2-9.2L539.3,776.5z M795.2,605.6l19.8,7.9c5-14,9.2-28.7,12.5-43.5l-20.6-5.1C803.9,578.9,799.9,592.6,795.2,605.6z M578,598.6l5.6-21.6c-10.5-3.1-23-7.8-38.1-14.5l-8.1,20.6C553.3,590.3,566.6,595.3,578,598.6z M413,654.6c7.2,13.8,14.9,26.7,23.3,38.4l17-13.4c-7.7-10.9-15-22.9-21.7-35.8L413,654.6z M498.7,565l8.9-20.2L469.8,526l-9,20.3L498.7,565z M465.1,727.6c10.8,10.9,22.5,20.5,34.5,28.5l11.3-18.9c-10.8-7.2-21.4-15.9-31.2-25.7L465.1,727.6z M814,521.2l21.1,2.4c0.7-7.5,1.3-15.2,1.7-23l-21.3-1.2C815.2,506.8,814.8,514,814,521.2z"/></g>
</svg>