<?xml version="1.0" encoding="utf-8"?>
<!-- Svg Vector Icons : http://www.onlinewebfonts.com/icon -->
<!DOCTYPE svg PUBLIC "-//W3C//DTD SVG 1.1//EN" "http://www.w3.org/Graphics/SVG/1.1/DTD/svg11.dtd">
<svg version="1.1" xmlns="http://www.w3.org/2000/svg" xmlns:xlink="http://www.w3.org/1999/xlink" x="0px" y="0px" viewBox="0 0 1000 1000" enable-background="new 0 0 1000 1000" xml:space="preserve">
<metadata> Svg Vector Icons : http://www.onlinewebfonts.com/icon </metadata>
<g><g transform="translate(0.000000,511.000000) scale(0.100000,-0.100000)"><path d="M1222.6,2946.3c-29.7-12.8-55.3-48.9-68-99.9c-10.6-44.6-78.7-306.1-148.8-580.3c-70.2-274.2-306.1-1192.6-522.9-2038.6C266-618.6,93.8-1326.5,100.2-1345.6c6.4-19.1,514.4-340.1,1128.8-712.1l1118.1-678.1l1311.6,355c720.6,193.4,1324.3,352.9,1341.3,352.9s620.7-159.4,1341.3-352.9l1311.6-355l1118.2,678.1c614.3,372,1122.4,690.9,1128.8,710c12.7,40.4-1060.8,4247.3-1092.6,4279.1c-34,34-112.7,23.4-414.5-61.6c-280.6-76.5-295.5-85-327.4-150.9c-40.4-87.1-19.1-163.7,63.8-225.3l57.4-42.5l195.6,55.3c108.4,31.9,199.8,53.1,204.1,48.9c10.6-10.6,984.2-3741.3,977.9-3745.6c-21.3-21.3-1764.4-1092.6-1768.6-1088.4s-108.4,676-233.8,1494.4C7346.9,631.4,7332,705.8,7283.1,752.5c-70.2,63.8-180.7,61.7-255.1-2.1l-57.4-51L7210.8-812c131.8-833.3,235.9-1517.8,231.7-1522.1c-10.6-10.6-2212.9,591-2249,612.2c-14.9,10.6-23.4,119-23.4,310.4c0,293.3,0,295.5-55.3,338c-31.9,25.5-82.9,44.6-114.8,44.6s-82.9-19.1-114.8-44.6c-55.3-42.5-55.3-44.7-55.3-338c0-191.3-8.5-299.7-23.4-310.4c-36.1-21.3-2219.3-622.9-2227.8-612.2c-6.4,4.3,93.5,688.8,221.1,1517.8c218.9,1439.2,227.5,1511.4,191.3,1551.8c-78.7,87.2-227.5,87.2-299.7-2.1c-14.9-17-127.5-695.1-253-1507.2c-125.4-812-229.6-1479.5-233.8-1483.8c-4.3-6.4-1724,1065-1747.4,1088.4c-6.4,4.3,967.2,3692.4,975.7,3703.1c4.3,4.2,91.4-17,193.4-48.9c174.3-53.1,184.9-53.1,238.1-19.1c87.2,57.4,108.4,127.5,72.3,231.7l-29.8,89.3l-276.3,74.4c-150.9,42.5-295.5,82.9-318.9,89.3C1288.5,2959.1,1248.1,2957,1222.6,2946.3z"/></g></g>
</svg>