<?xml version="1.0" encoding="utf-8"?>
<!-- Svg Vector Icons : http://www.onlinewebfonts.com/icon -->
<!DOCTYPE svg PUBLIC "-//W3C//DTD SVG 1.1//EN" "http://www.w3.org/Graphics/SVG/1.1/DTD/svg11.dtd">
<svg version="1.1" xmlns="http://www.w3.org/2000/svg" xmlns:xlink="http://www.w3.org/1999/xlink" x="0px" y="0px" viewBox="0 0 1000 1000" enable-background="new 0 0 1000 1000" xml:space="preserve">
<metadata> Svg Vector Icons : http://www.onlinewebfonts.com/icon </metadata>
<g><path d="M230.8,880.8c0.2,0.1,0.5,0.1,0.7,0.2c1.7,0.9,3.6,1.5,5.5,1.5c1.1,0,2.1-0.1,3.2-0.4L500,811.2l259.8,70.9c1.1,0.3,2.1,0.4,3.2,0.4c2,0,3.8-0.6,5.5-1.6c0.2-0.1,0.5-0.1,0.7-0.2l215.2-131.5c4.6-2.8,6.7-8.3,5.3-13.5L870.4,317.4c-1-3.5-3.5-6.4-6.9-7.8c-3.4-1.4-7.2-1.1-10.4,0.6l-118.6,66.6c-5.7,3.2-7.8,10.5-4.6,16.3c3.2,5.8,10.5,7.8,16.3,4.6l105.4-59.2l112.5,395.1L772.5,850.7L727,486.6c-0.8-6.6-7-11.1-13.4-10.4c-6.5,0.8-11.2,6.8-10.4,13.3l45.6,364.8L512,789.6v-65.3c0-6.6-5.4-11.9-11.9-11.9c-6.6,0-11.9,5.4-11.9,11.9v65.3l-236.9,64.7l45.6-364.8c0.8-6.5-3.8-12.5-10.4-13.3c-6.5-0.8-12.5,3.8-13.4,10.4l-45.5,364.1L35.9,733.6l112.5-395l105.4,59.2c5.8,3.2,13.1,1.2,16.3-4.6c3.2-5.8,1.2-13-4.6-16.3l-118.7-66.6c-3.2-1.8-7-2-10.4-0.6c-3.4,1.4-6,4.3-6.9,7.8L10.5,735.8c-1.5,5.2,0.7,10.7,5.3,13.5l215.1,131.5H230.8z M491.9,676.1c2.3,2.1,5.2,3.2,8.1,3.2c2.9,0,5.7-1,8-3.1c8-7.2,195.2-179,195.2-355.5c0-114-89.2-203.2-203.2-203.2c-114,0-203.2,89.2-203.2,203.2C296.8,494.1,483.9,668.8,491.9,676.1L491.9,676.1z M500,141.4c102.2,0,179.3,77.1,179.3,179.3c0,145.8-143.3,294.9-179.2,330.1c-35.9-35.5-179.4-186.7-179.4-330.1C320.7,218.5,397.8,141.4,500,141.4L500,141.4z M607.5,320.7c0-59.3-48.3-107.6-107.6-107.6c-59.3,0-107.6,48.3-107.6,107.6c0,59.3,48.3,107.6,107.6,107.6C559.3,428.3,607.5,380,607.5,320.7z M500,404.4c-46.1,0-83.7-37.5-83.7-83.7c0-46.1,37.5-83.7,83.7-83.7c46.1,0,83.7,37.5,83.7,83.7C583.6,366.9,546.1,404.4,500,404.4z"/></g>
</svg>