<?xml version="1.0" encoding="utf-8"?>
<!-- Svg Vector Icons : http://www.onlinewebfonts.com/icon -->
<!DOCTYPE svg PUBLIC "-//W3C//DTD SVG 1.1//EN" "http://www.w3.org/Graphics/SVG/1.1/DTD/svg11.dtd">
<svg version="1.1" xmlns="http://www.w3.org/2000/svg" xmlns:xlink="http://www.w3.org/1999/xlink" x="0px" y="0px" viewBox="0 0 1000 1000" enable-background="new 0 0 1000 1000" xml:space="preserve">
<metadata> Svg Vector Icons : http://www.onlinewebfonts.com/icon </metadata>
<g><path d="M500,650.5c35,0,56-70,133-182c84-119,98-161,98-217c0-133-98-238-231-238c-133,0-231,105-231,231c0,56,14,105,84,210C465,608.5,465,650.5,500,650.5z M500,41.5c112,0,203,91,203,203c0,49-14,91-91,203c-28,42-49,77-70,112c-14,14-21,28-28,42c-7,7-14,14-14,14c-7,0-21-28-35-56c-21-28-42-70-84-126c-70-105-84-140-84-189C304,132.5,388,41.5,500,41.5z"/><path d="M500,356.5c63,0,112-49,112-112c0-63-49-112-112-112c-63,0-112,49-112,112C388,307.5,437,356.5,500,356.5z M500,160.5c49,0,84,35,84,84c0,49-35,84-84,84s-84-42-84-84C416,202.5,451,160.5,500,160.5z"/><path d="M983,279.5c-7,0-14,0-14,0l-133,105c-7,7-7,14,0,21c7,7,14,7,21,0l105-84v490l-252,154l-385-210c0,0,0,0-7,0c-7,0-7,0-7,0l-266,154v-420l126-98c7-7,7-14,0-21s-14-14-21-7l-133,105c-7,0-7,7-7,14v455v7c7,7,14,7,21,7l287-168l385,203h7h7l266-154c7,0,7-7,7-14v-525C990,293.5,990,286.5,983,279.5z"/></g>
</svg>